<svg width="36" height="34" viewBox="0 0 36 34" fill="none" xmlns="http://www.w3.org/2000/svg">
<path d="M35.5006 3.4696V29.8386C35.4961 30.7574 35.1332 31.6372 34.4907 32.2869C33.8482 32.9366 32.9781 33.3036 32.0695 33.3082H20.3353C19.7894 33.3082 19.2657 33.0889 18.8797 32.6985C18.4936 32.3081 18.2767 31.7785 18.2767 31.2264C18.2767 30.6743 18.4936 30.1448 18.8797 29.7544C19.2657 29.364 19.7894 29.1447 20.3353 29.1447H31.3833V4.16352H6.67976V19.3083C6.67976 19.8605 6.46287 20.39 6.0768 20.7804C5.69073 21.1708 5.16711 21.3901 4.62113 21.3901C4.07515 21.3901 3.55153 21.1708 3.16546 20.7804C2.77939 20.39 2.5625 19.8605 2.5625 19.3083V3.4696C2.56701 2.55081 2.92994 1.67095 3.57241 1.02126C4.21489 0.37157 5.08497 0.00455984 5.99355 0H32.0695C32.9781 0.00455984 33.8482 0.37157 34.4907 1.02126C35.1332 1.67095 35.4961 2.55081 35.5006 3.4696Z" fill="url(#paint0_linear_48_74)"/>
<path d="M19.8207 18.8896C20.0709 18.9947 20.2982 19.1487 20.4894 19.3428C20.6814 19.5362 20.8336 19.766 20.9375 20.019C21.0415 20.2721 21.0949 20.5434 21.0949 20.8173C21.0949 21.0913 21.0415 21.3626 20.9375 21.6157C20.8336 21.8687 20.6814 22.0985 20.4894 22.2919L9.51008 33.3947C9.1216 33.7824 8.59773 33.9998 8.05188 33.9998C7.50604 33.9998 6.98217 33.7824 6.59369 33.3947L1.104 27.8433C0.717267 27.4522 0.5 26.9218 0.5 26.3687C0.5 25.8156 0.717267 25.2852 1.104 24.8941C1.49074 24.503 2.01527 24.2833 2.5622 24.2833C3.10913 24.2833 3.63366 24.503 4.0204 24.8941L8.05188 28.9709L17.5731 19.3428C17.7643 19.1487 17.9916 18.9947 18.2418 18.8896C18.492 18.7846 18.7603 18.7305 19.0312 18.7305C19.3022 18.7305 19.5705 18.7846 19.8207 18.8896Z" fill="black"/>
<defs>
<linearGradient id="paint0_linear_48_74" x1="19.0315" y1="0" x2="19.0315" y2="33.3082" gradientUnits="userSpaceOnUse">
<stop stop-color="#1D53DD"/>
<stop offset="1" stop-color="#7296F2"/>
</linearGradient>
</defs>
</svg>
