<svg width="350" height="1312" viewBox="0 0 350 1312" fill="none" xmlns="http://www.w3.org/2000/svg">
<g clip-path="url(#clip0_48_373)">
<path fill-rule="evenodd" clip-rule="evenodd" d="M12.0001 1179.44L104.452 1179.44C152.557 1027.7 275.039 858.433 308.114 758.532C354.729 617.736 363.96 522.878 324.565 381.46C256.31 136.44 12.0025 18.9994 12.0025 18.9994L12.0004 271.879L12.0001 355.47C12.0001 429.929 12.0001 580.252 12.0001 729.872C12.0001 879.493 12.0001 1029.82 12.0001 1179.44C12 1329.06 12.0001 1104.98 12.0001 1179.44Z" fill="#7296F2"/>
<path fill-rule="evenodd" clip-rule="evenodd" d="M0 1032.14L128 1030C128 1030 269.229 730.04 296.115 657.77C323 585.5 351.96 448.17 312.565 322.387C244.311 104.456 0.00264947 3.29692e-10 0.00264947 3.29692e-10L0.00062203 224.921L0.000313304 299.27C0.000304619 365.497 0.000303775 499.201 0.000286324 632.279C0.000268873 765.358 1.74511e-05 899.061 0 1032.14Z" fill="#1D53DD"/>
<path fill-rule="evenodd" clip-rule="evenodd" d="M106 1312L98.5 1251.81C98.5 1251.81 106.465 1071.81 122.636 952C138.249 832.188 197.354 730.313 224.119 610.5C250.884 490.688 242.785 414.076 206.501 315.5C164.521 201.449 10.0002 93.5005 10.0002 93.5005L10.0007 232L10.0007 292.188C10.0007 351.813 10.0006 472.188 10.0006 592C10.0006 711.813 10.0006 832.188 10.0006 952C10.0006 1071.81 10.0006 1192.19 10.0005 1251.81L10.0005 1312H106Z" fill="#103EB3"/>
</g>
<defs>
<clipPath id="clip0_48_373">
<rect width="349.307" height="1312" fill="white"/>
</clipPath>
</defs>
</svg>
