<svg width="70" height="70" viewBox="0 0 70 70" fill="none" xmlns="http://www.w3.org/2000/svg">
<path d="M62.5 30.6699C65.8333 32.5944 65.8333 37.4056 62.5 39.3301L25 60.9808C21.6667 62.9053 17.5 60.4996 17.5 56.6506L17.5 13.3494C17.5 9.50036 21.6667 7.09474 25 9.01924L62.5 30.6699Z" fill="white"/>
<path opacity="0.5" d="M56.9288 34.0274C57.9523 34.2719 57.9523 35.7281 56.9288 35.9726L18.7324 45.0979C18.1038 45.2481 17.5 44.7715 17.5 44.1253L17.5 25.8747C17.5 25.2285 18.1038 24.7519 18.7324 24.9021L56.9288 34.0274Z" fill="#D3D3D3"/>
<path opacity="0.5" d="M55 35L18.5461 36.6837C17.9763 36.71 17.5 36.2552 17.5 35.6848L17.5 34.3152C17.5 33.7448 17.9763 33.2899 18.5461 33.3163L55 35Z" fill="#ACACAC"/>
</svg>
