<svg width="107" height="23" viewBox="0 0 107 23" fill="none" xmlns="http://www.w3.org/2000/svg">
<path d="M31.2285 4.00195C31.0453 3.32504 30.688 2.70792 30.1921 2.21207C29.6962 1.71621 29.0791 1.35892 28.4021 1.17578C25.9238 0.5 15.9504 0.5 15.9504 0.5C15.9504 0.5 5.97654 0.520508 3.49861 1.19629C2.82172 1.37946 2.20462 1.73677 1.70877 2.23262C1.21292 2.72847 0.855613 3.34557 0.672439 4.02246C-0.0771699 8.42578 -0.36799 15.135 0.692947 19.3619C0.876121 20.0388 1.23342 20.6559 1.72928 21.1518C2.22513 21.6476 2.84223 22.0049 3.51912 22.1881C5.99724 22.8639 15.9709 22.8639 15.9709 22.8639C15.9709 22.8639 25.9445 22.8639 28.4226 22.1881C29.0995 22.0049 29.7166 21.6476 30.2125 21.1518C30.7083 20.6559 31.0656 20.0388 31.2488 19.3619C32.0392 14.9525 32.283 8.24746 31.2283 4.00215L31.2285 4.00195Z" fill="white"/>
<path d="M12.7812 16.4742L21.0551 11.682L12.7812 6.88965V16.4742Z" fill="black"/>
<path d="M102.824 6.99238C103.91 6.99238 104.729 7.19707 105.302 7.58613C105.876 7.97539 106.285 8.58965 106.531 9.42949C106.777 10.2691 106.879 11.4158 106.879 12.8904V15.2867H101.616V16.0238L101.698 18.0514C101.759 18.502 101.862 18.8297 102.025 19.0344C102.189 19.2393 102.455 19.3416 102.804 19.3416C103.275 19.3416 103.603 19.1574 103.766 18.7889C103.951 18.4201 104.032 17.8057 104.053 16.966L106.777 17.1299C106.797 17.2527 106.797 17.4166 106.797 17.6213C106.797 18.9115 106.449 19.8742 105.732 20.509C105.015 21.1437 104.032 21.4715 102.742 21.4715C101.186 21.4715 100.1 20.9801 99.4859 20.0176C98.8717 19.0549 98.5439 17.5393 98.5439 15.5119V13.0338C98.6135 9.55234 99.2258 7.00254 102.824 6.99238ZM64.957 7.25859V17.5189C64.957 18.1334 65.0184 18.584 65.1617 18.8502C65.4525 19.4195 66.2063 19.274 66.6158 18.9936C66.8523 18.8337 67.0429 18.6149 67.1688 18.3588V7.2584H70.3021V21.2461H67.8445L67.5783 19.5258H67.517C66.8412 20.816 65.8375 21.4713 64.5064 21.4713C62.4576 21.4662 61.9562 19.99 61.8369 18.4908L61.8291 18.3852C61.8144 18.1581 61.8057 17.9307 61.8031 17.7031V7.25859H64.9568H64.957ZM81.1156 7.25859V17.5189C81.1156 18.1334 81.177 18.584 81.3203 18.8502C81.6113 19.4195 82.3648 19.274 82.7744 18.9936C83.0109 18.8337 83.2015 18.6149 83.3273 18.3588V7.2584H86.4607V21.2461H84.0031L83.7369 19.5258H83.6756C82.9998 20.816 81.9961 21.4713 80.665 21.4713C78.6162 21.4662 78.1148 19.99 77.9955 18.4908L77.9877 18.3852C77.973 18.1581 77.9643 17.9307 77.9617 17.7031V7.25859H81.1156ZM55.8639 6.99238C56.8879 6.99238 57.7275 7.19707 58.342 7.62715C58.9563 8.05723 59.4273 8.71269 59.7141 9.61367C60.0008 10.5148 60.1441 11.723 60.1441 13.2182V15.2455C60.1441 16.7406 60.0008 17.9285 59.7141 18.8295C59.4273 19.7309 58.9768 20.3861 58.342 20.8162C57.7072 21.2258 56.8469 21.451 55.782 21.451C54.676 21.4715 53.8158 21.2463 53.1811 20.8367C52.5463 20.4066 52.0955 19.7512 51.8295 18.8502C51.5631 17.949 51.4402 16.7611 51.4402 15.2662V13.2385C51.4402 11.7434 51.5836 10.5146 51.8908 9.61348C52.198 8.69199 52.6689 8.03652 53.3244 7.62715C53.9797 7.21738 54.8193 6.99219 55.8639 6.99219V6.99238ZM91.376 1.38086V8.75352H91.3965C91.6832 8.22109 92.0518 7.79102 92.5639 7.46328C93.042 7.14174 93.6054 6.9706 94.1816 6.97187C94.9395 6.97187 95.5129 7.17656 95.943 7.56562C96.373 7.97539 96.6803 8.61016 96.8645 9.49082C97.0432 10.3439 97.1447 11.5238 97.151 13.0117L97.1512 13.1568V15.3686C97.1512 17.4369 96.885 18.973 96.3934 19.9561C95.8816 20.9391 95.1033 21.4307 94.0383 21.4307C93.4445 21.4307 92.9119 21.2873 92.4205 21.0211C91.9858 20.7678 91.6255 20.4046 91.3756 19.968L91.335 19.8945H91.2736L90.9459 21.2258H88.3449V1.38105H91.376V1.38086ZM78.8422 2.09766V4.63691H75.7293V21.2461H72.6574V4.63711H69.524V2.09785H78.8424L78.8422 2.09766ZM45.0709 2.09766L45.0729 2.10547C45.1027 2.23848 45.5168 4.0793 45.9723 6.22402L46.0082 6.39394L46.0625 6.65078L46.0988 6.82324L46.117 6.90977L46.1533 7.0832L46.1715 7.17012L46.2076 7.34414L46.2604 7.59863C46.568 9.08379 46.8615 10.5732 47.0371 11.6412H47.1191C47.2873 10.6832 47.5316 9.45723 47.7922 8.20547L47.8605 7.87852C47.8949 7.71484 47.9293 7.55117 47.9641 7.38789L48.0176 7.13457C48.3714 5.47575 48.7358 3.8192 49.1107 2.16504L49.1166 2.13867L49.126 2.09766H52.2594L48.6344 15.0205V21.2258H45.542V15.0408H45.5215L41.9375 2.09746L45.0709 2.09766ZM55.8023 9.16309C55.3723 9.16309 55.0855 9.38848 54.9014 9.85957C54.717 10.3305 54.6352 11.0473 54.6352 12.051V16.4131C54.6352 17.4371 54.717 18.1947 54.8809 18.6455C55.0447 19.0959 55.352 19.3213 55.8023 19.3213C56.2324 19.3213 56.5396 19.0959 56.724 18.6455C56.9084 18.1947 56.9902 17.4371 56.9902 16.4131V12.0508C56.9902 11.0473 56.9082 10.31 56.724 9.85937C56.5396 9.38848 56.2324 9.16309 55.8023 9.16309ZM91.9289 9.57285C91.6793 9.80332 91.5018 10.0875 91.3961 10.4428L91.376 10.5148V18.4609C91.6299 18.891 91.9904 19.1777 92.6252 19.1982C92.9529 19.1982 93.2189 19.0754 93.424 18.8297C93.6287 18.584 93.7721 18.1742 93.8539 17.6008C93.9326 17.0504 93.9736 16.2922 93.9768 15.3266V13.382C93.9768 12.2762 93.9357 11.4365 93.8744 10.8426C93.7924 10.2486 93.6902 9.81855 93.5059 9.57285C93.1494 9.06074 92.3795 9.06699 91.9289 9.57285ZM102.763 9.10176C102.415 9.12227 102.169 9.22461 102.025 9.40898C101.862 9.61367 101.759 9.9209 101.698 10.3715C101.638 10.8129 101.617 12.3559 101.616 12.4176V13.423H103.91V12.5363V12.5533C103.908 12.8633 103.902 12.3734 103.888 11.7721L103.886 11.6912C103.873 11.1627 103.854 10.5734 103.828 10.3715C103.766 9.90039 103.664 9.57266 103.5 9.38848C103.336 9.2041 103.09 9.10176 102.763 9.10176H102.763Z" fill="white"/>
</svg>
