<svg width="423" height="464" viewBox="0 0 423 464" fill="none" xmlns="http://www.w3.org/2000/svg">
<path d="M188 7C312.264 7 413 107.736 413 232C413 356.264 312.264 457 188 457" stroke="url(#paint0_linear_48_363)" stroke-width="5" stroke-linecap="round"/>
<circle cx="187.5" cy="456.5" r="7.5" fill="#2D5FE0"/>
<circle cx="413" cy="232" r="10" fill="#517CEA"/>
<circle cx="383" cy="340" r="10" fill="#3062E2"/>
<circle cx="383" cy="122" r="10" fill="#5982EC"/>
<circle cx="187.5" cy="7.5" r="7.5" fill="#7296F3"/>
<g filter="url(#filter0_dii_48_363)">
<circle cx="188" cy="232" r="175" fill="url(#paint1_radial_48_363)" shape-rendering="crispEdges"/>
</g>
<path d="M100.487 274.089C100.387 274.153 100.256 274.186 100.085 274.186H99.9747C99.0903 274.132 97.9747 274.067 96.6481 273.992C95.3215 273.916 93.8642 273.873 92.2863 273.873C91.5426 273.873 90.8793 273.981 90.2662 274.186C89.6632 274.401 89.1507 274.757 88.7286 275.275C88.3065 275.792 87.9848 276.483 87.7637 277.356C87.5426 278.229 87.4321 279.318 87.4321 280.612V285.573C87.4321 286.953 87.5627 288.074 87.824 288.948C88.0853 289.821 88.417 290.511 88.819 291.007C89.221 291.503 89.6733 291.859 90.1657 292.042C90.6582 292.226 91.1305 292.323 91.5728 292.323C92.5878 292.323 93.5325 292.28 94.4169 292.204V283.071C94.4169 282.855 94.4873 282.672 94.6179 282.51C94.7486 282.348 94.9194 282.273 95.1205 282.273H99.8541C100.055 282.273 100.226 282.348 100.377 282.51C100.527 282.672 100.598 282.855 100.598 283.071V296.41C100.598 296.916 100.347 297.218 99.8541 297.326C98.839 297.542 97.6732 297.725 96.3365 297.898C94.9998 298.07 93.4119 298.156 91.5627 298.156C90.8692 298.156 90.1255 298.081 89.3215 297.919C88.5175 297.757 87.7336 297.499 86.9497 297.121C86.1758 296.755 85.4221 296.248 84.7085 295.612C83.9949 294.975 83.3618 294.199 82.799 293.272C82.2462 292.344 81.804 291.244 81.4824 289.961C81.1608 288.678 81 287.201 81 285.54V280.623C81 278.078 81.3317 275.997 81.995 274.369C82.6583 272.741 83.5326 271.447 84.608 270.498C85.6834 269.549 86.8894 268.88 88.2361 268.514C89.5828 268.147 90.9195 267.953 92.2461 267.953C94.0953 267.953 95.6732 268.061 96.9797 268.287C98.2862 268.514 99.2812 268.708 99.9747 268.859C100.397 268.934 100.608 269.139 100.608 269.452V273.657C100.638 273.884 100.588 274.024 100.487 274.089Z" fill="black"/>
<path d="M121.724 297.65C121.081 297.757 120.227 297.865 119.151 297.984C118.076 298.102 116.538 298.167 114.548 298.167C113.363 298.167 112.227 298.059 111.141 297.854C110.056 297.65 109.091 297.229 108.257 296.625C107.423 296.021 106.76 295.148 106.267 294.026C105.775 292.905 105.523 291.439 105.523 289.638V276.45C105.523 274.649 105.775 273.194 106.267 272.083C106.76 270.972 107.423 270.11 108.257 269.506C109.091 268.902 110.056 268.492 111.162 268.277C112.267 268.061 113.403 267.964 114.589 267.964C115.574 267.964 116.448 267.985 117.192 268.029C117.945 268.072 118.599 268.115 119.172 268.169C119.734 268.223 120.227 268.277 120.629 268.33C121.031 268.384 121.403 268.438 121.724 268.492C122.217 268.568 122.468 268.837 122.468 269.29V272.978C122.468 273.194 122.398 273.377 122.247 273.539C122.096 273.7 121.925 273.776 121.724 273.776H114.217C113.353 273.776 112.739 273.97 112.388 274.347C112.026 274.736 111.855 275.437 111.855 276.472V280.084H121.433C121.634 280.084 121.805 280.159 121.955 280.321C122.106 280.483 122.177 280.666 122.177 280.882V284.656C122.177 284.872 122.106 285.055 121.955 285.206C121.805 285.368 121.634 285.443 121.433 285.443H111.855V289.649C111.855 290.684 112.036 291.385 112.388 291.773C112.749 292.161 113.353 292.344 114.217 292.344H121.724C121.925 292.344 122.096 292.42 122.247 292.582C122.398 292.743 122.468 292.927 122.468 293.131V296.819C122.468 297.294 122.217 297.563 121.724 297.65Z" fill="black"/>
<path d="M146.722 274.026C146.561 274.177 146.38 274.242 146.189 274.242H140.199V297.339C140.199 297.555 140.129 297.738 139.978 297.9C139.827 298.062 139.656 298.137 139.455 298.137H134.611C134.41 298.137 134.239 298.062 134.089 297.9C133.938 297.738 133.868 297.555 133.868 297.339V274.253H127.837C127.636 274.253 127.466 274.177 127.315 274.037C127.164 273.897 127.094 273.713 127.094 273.498V269.411C127.094 269.195 127.164 269.023 127.315 268.872C127.466 268.732 127.636 268.656 127.837 268.656H146.189C146.39 268.656 146.561 268.732 146.722 268.872C146.882 269.023 146.963 269.195 146.963 269.411V273.498C146.963 273.703 146.882 273.886 146.722 274.026Z" fill="black"/>
<path d="M179.688 297.326C179.688 297.639 179.507 297.801 179.135 297.801H173.447C173.246 297.801 173.095 297.725 172.995 297.563C172.894 297.402 172.794 297.218 172.693 297.003L167.758 286.964L167.356 287.007C166.964 287.007 166.512 286.996 166.01 286.964C165.507 286.942 165.085 286.921 164.743 286.921V297.003C164.743 297.218 164.673 297.402 164.522 297.563C164.372 297.725 164.201 297.801 164 297.801H159.166C158.965 297.801 158.794 297.725 158.643 297.563C158.492 297.402 158.422 297.218 158.422 297.003V270.369C158.422 269.678 158.563 269.215 158.834 268.978C159.105 268.74 159.527 268.568 160.09 268.46C160.512 268.384 161.015 268.32 161.608 268.266C162.201 268.212 162.834 268.158 163.497 268.104C164.161 268.05 164.854 268.007 165.557 267.986C166.261 267.964 166.944 267.942 167.618 267.942C169.196 267.942 170.673 268.093 172.03 268.395C173.387 268.697 174.572 269.215 175.567 269.948C176.572 270.681 177.356 271.63 177.919 272.827C178.482 274.024 178.773 275.491 178.773 277.237V277.755C178.773 279.868 178.311 281.583 177.397 282.877C176.482 284.171 175.336 285.109 173.969 285.691L179.587 296.884C179.648 297.046 179.688 297.197 179.688 297.326ZM172.432 277.248C172.432 276.03 172.01 275.135 171.176 274.574C170.341 274.002 169.155 273.722 167.608 273.722C167.487 273.722 167.286 273.733 167.005 273.744C166.723 273.754 166.432 273.765 166.14 273.787C165.849 273.798 165.568 273.808 165.296 273.83C165.025 273.841 164.844 273.851 164.743 273.851V281.475C164.844 281.475 165.015 281.486 165.256 281.497C165.497 281.507 165.769 281.518 166.05 281.54C166.331 281.551 166.593 281.561 166.844 281.561C167.085 281.561 167.266 281.561 167.356 281.561C168.311 281.561 169.115 281.486 169.768 281.346C170.422 281.206 170.944 280.979 171.336 280.688C171.728 280.397 172.01 280.009 172.181 279.534C172.351 279.06 172.442 278.477 172.442 277.787V277.248H172.432Z" fill="black"/>
<path d="M198.818 297.65C198.175 297.757 197.321 297.865 196.245 297.984C195.17 298.102 193.642 298.167 191.642 298.167C190.456 298.167 189.321 298.059 188.235 297.854C187.15 297.65 186.185 297.229 185.351 296.625C184.517 296.021 183.853 295.148 183.361 294.026C182.868 292.905 182.617 291.439 182.617 289.638V276.45C182.617 274.649 182.868 273.194 183.361 272.083C183.853 270.972 184.517 270.11 185.351 269.506C186.185 268.902 187.15 268.492 188.255 268.277C189.361 268.061 190.497 267.964 191.682 267.964C192.667 267.964 193.542 267.985 194.285 268.029C195.039 268.072 195.692 268.115 196.265 268.169C196.828 268.223 197.321 268.277 197.723 268.33C198.125 268.384 198.496 268.438 198.818 268.492C199.31 268.568 199.562 268.837 199.562 269.29V272.978C199.562 273.194 199.491 273.377 199.341 273.539C199.19 273.7 199.019 273.776 198.828 273.776H191.321C190.456 273.776 189.843 273.97 189.491 274.347C189.13 274.736 188.959 275.437 188.959 276.472V280.084H198.537C198.738 280.084 198.908 280.159 199.059 280.321C199.21 280.483 199.28 280.666 199.28 280.882V284.656C199.28 284.872 199.21 285.055 199.059 285.206C198.908 285.368 198.738 285.443 198.537 285.443H188.959V289.649C188.959 290.684 189.14 291.385 189.491 291.773C189.853 292.161 190.456 292.344 191.321 292.344H198.828C199.029 292.344 199.2 292.42 199.341 292.582C199.491 292.743 199.562 292.927 199.562 293.131V296.819C199.552 297.294 199.31 297.563 198.818 297.65Z" fill="black"/>
<path d="M221.778 289.465C221.778 290.522 221.607 291.568 221.255 292.603C220.914 293.638 220.341 294.566 219.537 295.385C218.733 296.205 217.698 296.873 216.411 297.391C215.125 297.908 213.547 298.167 211.678 298.167C210.2 298.167 208.894 298.092 207.778 297.93C206.663 297.768 205.627 297.563 204.693 297.294C204.492 297.24 204.321 297.154 204.17 297.013C204.019 296.884 203.949 296.711 203.949 296.496V292.603C203.949 292.312 204.009 292.118 204.13 292.01C204.251 291.902 204.411 291.848 204.612 291.848H204.723C205.095 291.902 205.607 291.956 206.261 292.01C206.914 292.064 207.587 292.107 208.281 292.15C208.974 292.193 209.627 292.226 210.261 292.269C210.894 292.312 211.386 292.334 211.758 292.334C213.044 292.334 213.909 292.107 214.361 291.654C214.813 291.201 215.044 290.5 215.044 289.552C215.044 288.969 214.874 288.473 214.542 288.063C214.21 287.654 213.557 287.147 212.602 286.532L207.497 283.276C206.632 282.726 205.929 282.154 205.366 281.572C204.813 280.99 204.371 280.386 204.03 279.75C203.698 279.114 203.467 278.456 203.326 277.787C203.195 277.108 203.125 276.418 203.125 275.706C203.125 274.617 203.276 273.614 203.587 272.665C203.899 271.727 204.421 270.908 205.155 270.207C205.899 269.506 206.874 268.956 208.08 268.557C209.286 268.158 210.793 267.964 212.592 267.964C213.256 267.964 213.979 267.985 214.753 268.039C215.527 268.093 216.271 268.158 216.994 268.233C217.718 268.309 218.371 268.406 218.994 268.514C219.607 268.622 220.09 268.729 220.441 268.827C220.592 268.88 220.723 268.956 220.833 269.064C220.944 269.172 221.004 269.333 221.004 269.538V273.549C221.004 273.733 220.964 273.895 220.874 274.024C220.783 274.153 220.622 274.218 220.371 274.218H220.301C220.029 274.196 219.587 274.153 218.984 274.121C218.381 274.089 217.698 274.035 216.934 273.981C216.17 273.927 215.386 273.884 214.582 273.841C213.778 273.797 213.075 273.776 212.452 273.776C211.386 273.776 210.643 273.948 210.21 274.294C209.778 274.639 209.567 275.167 209.567 275.879C209.567 276.17 209.607 276.418 209.678 276.633C209.748 276.849 209.879 277.054 210.07 277.248C210.261 277.442 210.512 277.658 210.823 277.884C211.145 278.111 211.547 278.369 212.039 278.661L216.773 281.4C218.693 282.51 220.009 283.729 220.713 285.055C221.426 286.392 221.778 287.859 221.778 289.465Z" fill="black"/>
<path d="M242.021 297.65C241.378 297.757 240.524 297.865 239.448 297.984C238.373 298.102 236.845 298.167 234.845 298.167C233.659 298.167 232.524 298.059 231.438 297.854C230.353 297.65 229.388 297.229 228.554 296.625C227.72 296.021 227.056 295.148 226.564 294.026C226.072 292.905 225.82 291.439 225.82 289.638V276.45C225.82 274.649 226.072 273.194 226.564 272.083C227.056 270.972 227.72 270.11 228.554 269.506C229.388 268.902 230.353 268.492 231.458 268.277C232.564 268.061 233.7 267.964 234.886 267.964C235.87 267.964 236.745 267.985 237.489 268.029C238.242 268.072 238.896 268.115 239.468 268.169C240.031 268.223 240.524 268.277 240.926 268.33C241.328 268.384 241.7 268.438 242.021 268.492C242.514 268.568 242.765 268.837 242.765 269.29V272.978C242.765 273.194 242.694 273.377 242.544 273.539C242.393 273.7 242.222 273.776 242.031 273.776H234.524C233.659 273.776 233.046 273.97 232.695 274.347C232.333 274.736 232.162 275.437 232.162 276.472V280.084H241.74C241.941 280.084 242.112 280.159 242.262 280.321C242.413 280.483 242.483 280.666 242.483 280.882V284.656C242.483 284.872 242.413 285.055 242.262 285.206C242.112 285.368 241.941 285.443 241.74 285.443H232.162V289.649C232.162 290.684 232.343 291.385 232.695 291.773C233.056 292.161 233.659 292.344 234.524 292.344H242.031C242.232 292.344 242.403 292.42 242.544 292.582C242.694 292.743 242.765 292.927 242.765 293.131V296.819C242.755 297.294 242.514 297.563 242.021 297.65Z" fill="black"/>
<path d="M268.745 297.37C268.464 297.661 268.122 297.812 267.73 297.812H264.102C263.71 297.812 263.358 297.736 263.067 297.596C262.775 297.456 262.474 297.111 262.182 296.583L253.75 280.947C253.63 280.732 253.519 280.635 253.418 280.635C253.298 280.635 253.238 280.742 253.238 280.947V297.025C253.238 297.24 253.167 297.424 253.016 297.585C252.866 297.747 252.695 297.823 252.504 297.823H248.142C247.941 297.823 247.77 297.747 247.62 297.585C247.469 297.424 247.398 297.24 247.398 297.025V269.819C247.398 269.399 247.529 269.043 247.81 268.752C248.082 268.46 248.413 268.32 248.805 268.32H252.544C252.916 268.32 253.207 268.417 253.429 268.622C253.65 268.827 253.871 269.129 254.092 269.55L262.856 285.907C262.976 286.123 263.077 286.22 263.147 286.22C263.268 286.22 263.328 286.102 263.328 285.864V269.075C263.328 268.859 263.398 268.687 263.549 268.536C263.7 268.396 263.871 268.32 264.072 268.32H268.433C268.634 268.32 268.805 268.396 268.956 268.536C269.107 268.687 269.177 268.859 269.177 269.075V296.302C269.167 296.723 269.026 297.079 268.745 297.37Z" fill="black"/>
<path d="M295.097 285.616C295.097 287.708 294.826 289.541 294.283 291.115C293.741 292.689 292.967 293.994 291.952 295.04C290.937 296.086 289.71 296.862 288.253 297.38C286.796 297.898 285.148 298.156 283.298 298.156C282.535 298.156 281.761 298.135 280.987 298.102C280.213 298.059 279.469 298.016 278.766 297.962C278.062 297.908 277.419 297.854 276.846 297.779C276.263 297.714 275.791 297.639 275.419 297.563C275.077 297.509 274.806 297.38 274.625 297.164C274.444 296.949 274.344 296.625 274.344 296.172V269.948C274.344 269.495 274.434 269.172 274.625 268.956C274.816 268.74 275.077 268.611 275.419 268.557C275.791 268.481 276.263 268.406 276.846 268.341C277.429 268.277 278.062 268.212 278.766 268.158C279.469 268.104 280.213 268.061 280.987 268.018C281.761 267.975 282.535 267.953 283.298 267.953C285.148 267.953 286.796 268.212 288.253 268.73C289.71 269.247 290.937 270.023 291.952 271.069C292.967 272.115 293.741 273.42 294.283 274.994C294.826 276.569 295.097 278.402 295.097 280.494V285.616ZM288.776 280.505C288.776 279.157 288.645 278.046 288.384 277.173C288.122 276.299 287.751 275.609 287.278 275.091C286.806 274.574 286.223 274.218 285.56 274.024C284.896 273.83 284.143 273.722 283.298 273.722C282.826 273.722 282.344 273.733 281.841 273.744C281.339 273.754 280.947 273.776 280.675 273.808V292.344C280.947 292.366 281.339 292.387 281.841 292.398C282.344 292.409 282.836 292.42 283.298 292.42C284.133 292.42 284.886 292.323 285.56 292.118C286.223 291.924 286.796 291.568 287.278 291.05C287.761 290.533 288.133 289.843 288.384 288.969C288.635 288.096 288.776 286.985 288.776 285.637V280.505Z" fill="black"/>
<path d="M168.649 167.196C167.875 167.595 149.282 177.58 148.006 198.37C147.222 211.083 153.372 220.303 155.292 222.966C155.423 226.74 155.553 230.514 155.684 234.288L160.237 228.163C161.553 229.425 163.071 230.741 164.769 232.045C166.96 233.728 169.061 235.075 170.98 236.165C166.9 236.768 159.935 237.189 152.006 234.396C147.845 232.93 144.508 230.967 142.036 229.199C137.172 231.819 132.317 234.439 127.453 237.06C129.182 231.571 130.91 226.072 132.639 220.583C131.182 218.459 129.333 215.202 128.147 210.868C126.026 203.071 127.403 196.58 127.895 194.423C131.152 179.931 143.001 172.749 145.543 171.294C155.473 165.6 165.031 166.603 168.649 167.196Z" fill="#1D53DD"/>
<path d="M154.024 216.108C153.511 212.916 152.988 206.662 155.672 199.912C159.662 189.873 167.963 185.775 170.677 184.438C172.596 183.489 178.074 181.042 185.39 181.322C196.616 181.753 204.304 188.309 206.847 190.692C205.37 192.655 203.902 194.628 202.425 196.591C208.616 197.044 214.817 197.486 221.008 197.939C221.038 189.7 221.068 181.462 221.108 173.224C219.701 174.733 218.304 176.243 216.897 177.753C215.611 176.394 213.822 174.669 211.52 172.911C206.737 169.266 202.485 167.584 201.45 167.196C191.953 163.692 183.601 165.288 180.707 165.881C172.486 167.563 166.968 171.402 165.732 172.275C162.606 174.507 156.064 179.305 152.566 188.525C151.581 191.124 150.295 195.458 150.345 200.936C150.405 208.096 152.687 213.455 154.024 216.108Z" fill="#1D53DD"/>
<path d="M223.811 185.053C225.098 188.126 226.917 193.507 226.947 200.386C226.957 203.362 226.856 213.736 219.912 223.031C214.947 229.673 208.987 232.412 205.841 233.814C193.148 239.453 181.621 236.089 178.616 235.108C169.671 232.185 163.852 226.632 160.998 223.473C159.902 225.069 158.807 226.654 157.711 228.25C157.45 220.076 157.199 211.913 156.938 203.74C163.128 204.398 169.329 205.055 175.52 205.713C174.234 207.169 172.957 208.624 171.671 210.091C173.56 212.7 176.435 215.838 180.565 218.157C190.776 223.904 202.736 221.219 210.846 216.097C213.188 214.62 216.756 211.892 219.65 207.266C225.55 197.863 224.233 187.695 223.811 185.053Z" fill="#7296F2"/>
<path d="M183.157 204.98C184.572 204.98 185.719 203.749 185.719 202.23C185.719 200.712 184.572 199.48 183.157 199.48C181.741 199.48 180.594 200.712 180.594 202.23C180.594 203.749 181.741 204.98 183.157 204.98Z" fill="#103EB3"/>
<path d="M190.516 204.98C191.931 204.98 193.079 203.749 193.079 202.23C193.079 200.712 191.931 199.48 190.516 199.48C189.101 199.48 187.953 200.712 187.953 202.23C187.953 203.749 189.101 204.98 190.516 204.98Z" fill="#103EB3"/>
<path d="M198.258 204.98C199.673 204.98 200.821 203.749 200.821 202.23C200.821 200.712 199.673 199.48 198.258 199.48C196.843 199.48 195.695 200.712 195.695 202.23C195.695 203.749 196.843 204.98 198.258 204.98Z" fill="#103EB3"/>
<defs>
<filter id="filter0_dii_48_363" x="0" y="44" width="390" height="390" filterUnits="userSpaceOnUse" color-interpolation-filters="sRGB">
<feFlood flood-opacity="0" result="BackgroundImageFix"/>
<feColorMatrix in="SourceAlpha" type="matrix" values="0 0 0 0 0 0 0 0 0 0 0 0 0 0 0 0 0 0 127 0" result="hardAlpha"/>
<feOffset dx="7" dy="7"/>
<feGaussianBlur stdDeviation="10"/>
<feComposite in2="hardAlpha" operator="out"/>
<feColorMatrix type="matrix" values="0 0 0 0 0.113725 0 0 0 0 0.32549 0 0 0 0 0.866667 0 0 0 0.15 0"/>
<feBlend mode="normal" in2="BackgroundImageFix" result="effect1_dropShadow_48_363"/>
<feBlend mode="normal" in="SourceGraphic" in2="effect1_dropShadow_48_363" result="shape"/>
<feColorMatrix in="SourceAlpha" type="matrix" values="0 0 0 0 0 0 0 0 0 0 0 0 0 0 0 0 0 0 127 0" result="hardAlpha"/>
<feOffset dx="7" dy="7"/>
<feGaussianBlur stdDeviation="7.5"/>
<feComposite in2="hardAlpha" operator="arithmetic" k2="-1" k3="1"/>
<feColorMatrix type="matrix" values="0 0 0 0 0.113725 0 0 0 0 0.32549 0 0 0 0 0.866667 0 0 0 0.25 0"/>
<feBlend mode="normal" in2="shape" result="effect2_innerShadow_48_363"/>
<feColorMatrix in="SourceAlpha" type="matrix" values="0 0 0 0 0 0 0 0 0 0 0 0 0 0 0 0 0 0 127 0" result="hardAlpha"/>
<feOffset dx="-5" dy="-5"/>
<feGaussianBlur stdDeviation="5"/>
<feComposite in2="hardAlpha" operator="arithmetic" k2="-1" k3="1"/>
<feColorMatrix type="matrix" values="0 0 0 0 0.113725 0 0 0 0 0.32549 0 0 0 0 0.866667 0 0 0 0.25 0"/>
<feBlend mode="normal" in2="effect2_innerShadow_48_363" result="effect3_innerShadow_48_363"/>
</filter>
<linearGradient id="paint0_linear_48_363" x1="300.5" y1="457" x2="300.5" y2="7" gradientUnits="userSpaceOnUse">
<stop stop-color="#1D53DD"/>
<stop offset="1" stop-color="#7296F2"/>
</linearGradient>
<radialGradient id="paint1_radial_48_363" cx="0" cy="0" r="1" gradientUnits="userSpaceOnUse" gradientTransform="translate(190 234) rotate(45) scale(177.484)">
<stop stop-color="#F3F3F3"/>
<stop offset="1" stop-color="white" stop-opacity="0"/>
</radialGradient>
</defs>
</svg>
