<svg width="260" height="115" viewBox="0 0 260 115" fill="none" xmlns="http://www.w3.org/2000/svg">
<path opacity="0.15" d="M119.414 47.0146C119.766 49.8201 120 52.6723 120 55.5713C120 81.0541 106.008 103.24 85.2891 115L81.4219 106.864V51.2929L85.7109 47.0146H119.414ZM0 51.2929C0 47.0146 4.28906 42.7363 8.57812 42.7363H42.8672C40.7344 34.1797 38.5781 25.6465 38.5781 21.3682C38.5781 12.8115 42.8672 4.27831 45 2.12747C45.0469 2.08071 47.1328 0 51.4219 0C57.8438 0 57.8437 6.40577 57.8437 6.40577C57.8437 6.52267 59.9766 17.0899 59.9766 21.3682C59.9766 25.6465 68.5547 42.7363 72.8438 47.0146L77.1328 49.1421V108.992L72.8438 111.119H25.7109C17.1328 111.119 12.8438 106.841 12.8438 102.563C12.8438 98.2842 17.1328 94.0059 21.4219 94.0059C12.8438 94.0059 8.55469 89.7276 8.55469 85.4493C8.55469 81.171 12.8438 76.8927 17.1328 76.8927C8.55469 76.8927 4.26562 72.6143 4.26562 68.336C4.26562 64.0577 8.55469 59.7794 12.8438 59.7794C4.28906 59.8496 0 55.5713 0 51.2929Z" fill="url(#paint0_linear_48_108)"/>
<path opacity="0.15" d="M140.586 47.0146C140.234 49.8201 140 52.6723 140 55.5713C140 81.0541 153.992 103.24 174.711 115L178.578 106.864V51.2929L174.289 47.0146H140.586ZM260 51.2929C260 47.0146 255.711 42.7363 251.422 42.7363H217.133C219.266 34.1797 221.422 25.6465 221.422 21.3682C221.422 12.8115 217.133 4.27831 215 2.12747C214.953 2.08071 212.867 0 208.578 0C202.156 0 202.156 6.40577 202.156 6.40577C202.156 6.52267 200.023 17.0899 200.023 21.3682C200.023 25.6465 191.445 42.7363 187.156 47.0146L182.867 49.1421V108.992L187.156 111.119H234.289C242.867 111.119 247.156 106.841 247.156 102.563C247.156 98.2842 242.867 94.0059 238.578 94.0059C247.156 94.0059 251.445 89.7276 251.445 85.4493C251.445 81.171 247.156 76.8927 242.867 76.8927C251.445 76.8927 255.734 72.6143 255.734 68.336C255.734 64.0577 251.445 59.7794 247.156 59.7794C255.711 59.8496 260 55.5713 260 51.2929Z" fill="url(#paint1_linear_48_108)"/>
<defs>
<linearGradient id="paint0_linear_48_108" x1="60" y1="0" x2="60" y2="115" gradientUnits="userSpaceOnUse">
<stop stop-color="#1D53DD"/>
<stop offset="1" stop-color="#7296F2"/>
</linearGradient>
<linearGradient id="paint1_linear_48_108" x1="200" y1="0" x2="200" y2="115" gradientUnits="userSpaceOnUse">
<stop stop-color="#1D53DD"/>
<stop offset="1" stop-color="#7296F2"/>
</linearGradient>
</defs>
</svg>
