<svg width="25" height="25" viewBox="0 0 25 25" fill="none" xmlns="http://www.w3.org/2000/svg">
<path fill-rule="evenodd" clip-rule="evenodd" d="M12.5 25C19.4036 25 25 19.4036 25 12.5C25 5.59644 19.4036 0 12.5 0C5.59644 0 0 5.59644 0 12.5C0 19.4036 5.59644 25 12.5 25ZM11.13 9.71899L10.1824 10.6662C10.6392 14.3282 14.3323 14.8737 14.3323 14.8737L15.2799 13.9265C15.4071 13.7998 15.5688 13.7133 15.7449 13.678C15.9209 13.6427 16.1035 13.6599 16.2698 13.7277L17.4247 14.1886C17.594 14.2561 17.7393 14.3727 17.8418 14.5234C17.9444 14.6742 17.9994 14.8521 18 15.0343V17.0768C18.0008 17.2063 17.9741 17.3345 17.9218 17.453C17.8694 17.5715 17.7926 17.6776 17.6963 17.7643C17.6 17.851 17.4864 17.9163 17.363 17.956C17.2397 17.9956 17.1093 18.0087 16.9805 17.9944C14.3577 17.6857 7.50459 16.0534 7.00118 7.96412C6.9949 7.84047 7.01371 7.71683 7.05649 7.60064C7.09927 7.48445 7.16513 7.37812 7.25011 7.28804C7.33508 7.19797 7.43741 7.12601 7.55094 7.07651C7.66447 7.02701 7.78684 7.00098 7.9107 7H10.0259C10.2079 7.00167 10.3854 7.05717 10.536 7.15951C10.6865 7.26185 10.8034 7.40645 10.8719 7.57509L11.333 8.7295C11.3986 8.89638 11.4144 9.07871 11.3783 9.25435C11.3423 9.43 11.256 9.59141 11.13 9.71899Z" fill="white"/>
</svg>
