<svg width="78" height="66" viewBox="0 0 78 66" fill="none" xmlns="http://www.w3.org/2000/svg">
<path fill-rule="evenodd" clip-rule="evenodd" d="M56.6508 12.8922H69.9855C73.0262 12.8922 75.5006 15.207 75.5 18.0525V60.8405C75.5 63.685 73.0259 66 69.9842 66H6.01583C2.97454 66 0.5 63.6854 0.5 60.8405V18.0511C0.5 15.2066 2.9741 12.8922 6.01583 12.8922H19.3509V6.15948C19.3509 3.31497 21.825 1 24.8667 1H51.1344C54.1757 1 56.6508 3.31456 56.6508 6.15948V12.8922ZM24.8654 4.06697C23.6328 4.06697 22.6287 5.00547 22.6287 6.16002V12.8922L53.371 12.8928V6.16002C53.371 5.00601 52.3675 4.06697 51.1331 4.06697H24.8654ZM69.9853 62.9336C71.218 62.9336 72.222 61.9951 72.222 60.8405L72.2206 60.8403V18.0509C72.2206 16.898 71.2177 15.959 69.9839 15.959H6.01554C4.78286 15.959 3.77885 16.8969 3.77885 18.0509V31.5131V60.8405C3.77885 61.9945 4.78168 62.9336 6.01554 62.9336H69.9853Z" fill="url(#paint0_linear_48_334)"/>
<path d="M37.827 42.2759L3.78125 34.6672V31.5137L38.2061 39.2078L67.0309 32.6911C67.9115 32.4938 68.7966 32.9986 69.0098 33.8222C69.2208 34.6452 68.6811 35.4736 67.8006 35.6731L38.5938 42.2753C38.4668 42.3037 38.3382 42.3181 38.2084 42.3181C38.0803 42.3181 37.9517 42.3037 37.827 42.2759Z" fill="black"/>
<g opacity="0.2">
<path fill-rule="evenodd" clip-rule="evenodd" d="M58.6508 11.8922H71.9855C75.0262 11.8922 77.5006 14.207 77.5 17.0525V59.8405C77.5 62.685 75.0259 65 71.9842 65H8.01583C4.97454 65 2.5 62.6854 2.5 59.8405V17.0511C2.5 14.2066 4.9741 11.8922 8.01583 11.8922H21.3509V5.15948C21.3509 2.31497 23.825 0 26.8667 0H53.1344C56.1757 0 58.6508 2.31456 58.6508 5.15948V11.8922ZM26.8654 3.06697C25.6328 3.06697 24.6287 4.00547 24.6287 5.16002V11.8922L55.371 11.8928V5.16002C55.371 4.00601 54.3675 3.06697 53.1331 3.06697H26.8654ZM71.9853 61.9336C73.218 61.9336 74.222 60.9951 74.222 59.8405L74.2206 59.8403V17.0509C74.2206 15.898 73.2177 14.959 71.9839 14.959H8.01554C6.78286 14.959 5.77885 15.8969 5.77885 17.0509V30.5131V59.8405C5.77885 60.9945 6.78168 61.9336 8.01554 61.9336H71.9853Z" fill="url(#paint1_linear_48_334)"/>
<path d="M39.827 41.2759L5.78125 33.6672V30.5137L40.2061 38.2078L69.0309 31.6911C69.9115 31.4938 70.7966 31.9986 71.0098 32.8222C71.2208 33.6452 70.6811 34.4736 69.8006 34.6731L40.5938 41.2753C40.4668 41.3037 40.3382 41.3181 40.2084 41.3181C40.0803 41.3181 39.9517 41.3037 39.827 41.2759Z" fill="black"/>
</g>
<defs>
<linearGradient id="paint0_linear_48_334" x1="38" y1="1" x2="38" y2="66" gradientUnits="userSpaceOnUse">
<stop stop-color="#1D53DD"/>
<stop offset="1" stop-color="#7296F2"/>
</linearGradient>
<linearGradient id="paint1_linear_48_334" x1="40" y1="0" x2="40" y2="65" gradientUnits="userSpaceOnUse">
<stop stop-color="#1D53DD"/>
<stop offset="1" stop-color="#7296F2"/>
</linearGradient>
</defs>
</svg>
