<svg width="469" height="1629" viewBox="0 0 469 1629" fill="none" xmlns="http://www.w3.org/2000/svg">
<path fill-rule="evenodd" clip-rule="evenodd" d="M101 -6.98164e-06L4.64853e-05 188.321C34.2408 262.78 93.2463 302.023 135 429.483C191.702 602.575 209.5 729.672 162.886 870.468C116.271 1011.26 107.041 1106.12 146.435 1247.54C214.69 1492.56 458.998 1610 458.998 1610L459 1357.12L459 1273.53C459 1199.07 459 1048.75 459 899.127C459 749.507 459 599.184 459 449.564C459 299.943 459 149.62 459 75.1614L459 0L101 -6.98164e-06Z" fill="#7296F2"/>
<path fill-rule="evenodd" clip-rule="evenodd" d="M111 197L144.65 263.852C178.891 330.079 276.098 517.763 258.978 650.842C242.447 783.92 201.223 838.151 172.886 971.23C144.548 1104.31 117.04 1180.83 156.435 1306.61C224.69 1524.54 468.998 1629 468.998 1629L469 1404.08L469 1329.73C469 1263.5 469 1129.8 469 996.721C469 863.642 469 729.939 469 596.86C469 463.782 469 330.079 469 263.852L469 197L111 197Z" fill="#1D53DD"/>
<path fill-rule="evenodd" clip-rule="evenodd" d="M262.499 317C262.499 317 278.222 353.376 286.999 377.188C328.283 489.178 362.535 557.187 346.364 677C330.751 796.812 271.646 898.687 244.881 1018.5C218.116 1138.31 226.216 1214.92 262.499 1313.5C304.479 1427.55 459 1535.5 459 1535.5L458.999 1397L458.999 1336.81C458.999 1277.19 458.999 1156.81 458.999 1037C458.999 917.187 458.999 796.812 458.999 677C458.999 557.187 458.999 436.812 458.999 377.187L458.999 317L262.499 317Z" fill="#103EB3"/>
</svg>
