<svg width="68" height="66" viewBox="0 0 68 66" fill="none" xmlns="http://www.w3.org/2000/svg">
<path d="M53.204 28.0835C52.9369 28.4783 52.7787 28.9366 52.7454 29.4122C52.7121 29.8877 52.8049 30.3636 53.0145 30.7918C53.6867 32.3607 54.1598 34.0075 54.4228 35.6939C55.12 40.0547 54.4679 44.5244 52.554 48.5043C52.3216 48.9409 51.9741 49.3054 51.5492 49.5585C51.1243 49.8115 50.6382 49.9434 50.1436 49.9397H15.8832C15.3859 49.9408 14.8979 49.8049 14.4727 49.5469C14.0475 49.2889 13.7016 48.9188 13.4728 48.4772C11.7391 44.9603 10.9923 41.0388 11.312 37.1309C11.6317 33.2229 13.0059 29.4749 15.2881 26.2865C17.5703 23.0981 20.675 20.5888 24.2711 19.026C27.8673 17.4632 31.8201 16.9056 35.7082 17.4127C37.6755 17.6439 39.5998 18.1546 41.4228 18.9293C41.851 19.1389 42.3269 19.2317 42.8024 19.1984C43.278 19.1651 43.7363 19.0069 44.1311 18.7397C44.5425 18.4688 44.8721 18.0907 45.0846 17.6463C45.2971 17.2019 45.3843 16.708 45.3369 16.2177C45.2896 15.7274 45.1094 15.2593 44.8158 14.8638C44.5222 14.4683 44.1263 14.1603 43.6707 13.9731C38.4387 11.7297 32.6329 11.1919 27.0779 12.4361C21.5228 13.6803 16.5011 16.6433 12.726 20.9042C8.95088 25.1651 6.61435 30.5071 6.04831 36.1716C5.48227 41.8361 6.71549 47.5349 9.5728 52.4585C10.0454 53.2772 10.7241 53.9579 11.5413 54.433C12.3585 54.9081 13.2859 55.1611 14.2311 55.1668H51.7416C52.696 55.1706 53.6345 54.9221 54.4621 54.4465C55.2896 53.9709 55.9768 53.2851 56.454 52.4585C58.5459 48.8332 59.7691 44.7725 60.0275 40.595C60.286 36.4174 59.5727 32.2369 57.9436 28.3814C57.7373 27.942 57.4167 27.5661 57.0153 27.2931C56.6139 27.0201 56.1465 26.86 55.662 26.8296C55.1775 26.7991 54.6938 26.8994 54.2614 27.12C53.829 27.3406 53.4638 27.6734 53.204 28.0835Z" fill="url(#paint0_linear_48_27)"/>
<path d="M29.1811 35.0977C28.1647 36.1141 27.5938 37.4926 27.5938 38.93C27.5938 39.6417 27.7339 40.3465 28.0063 41.004C28.2787 41.6616 28.6779 42.259 29.1811 42.7623C29.6844 43.2656 30.2819 43.6648 30.9394 43.9371C31.597 44.2095 32.3017 44.3497 33.0134 44.3497C34.4508 44.3497 35.8293 43.7787 36.8457 42.7623L52.1749 19.7686L29.1811 35.0977Z" fill="black"/>
<g opacity="0.2">
<path d="M55.204 26.0835C54.9369 26.4783 54.7787 26.9366 54.7454 27.4122C54.7121 27.8877 54.8049 28.3636 55.0145 28.7918C55.6867 30.3607 56.1598 32.0075 56.4228 33.6939C57.12 38.0547 56.4679 42.5244 54.554 46.5043C54.3216 46.9409 53.9741 47.3054 53.5492 47.5585C53.1243 47.8115 52.6382 47.9434 52.1436 47.9397H17.8832C17.3859 47.9408 16.8979 47.8049 16.4727 47.5469C16.0475 47.2889 15.7016 46.9188 15.4728 46.4772C13.7391 42.9603 12.9923 39.0388 13.312 35.1309C13.6317 31.2229 15.0059 27.4749 17.2881 24.2865C19.5703 21.0981 22.675 18.5888 26.2711 17.026C29.8673 15.4632 33.8201 14.9056 37.7082 15.4127C39.6755 15.6439 41.5998 16.1546 43.4228 16.9293C43.851 17.1389 44.3269 17.2317 44.8024 17.1984C45.278 17.1651 45.7363 17.0069 46.1311 16.7397C46.5425 16.4688 46.8721 16.0907 47.0846 15.6463C47.2971 15.2019 47.3843 14.708 47.3369 14.2177C47.2896 13.7274 47.1094 13.2593 46.8158 12.8638C46.5222 12.4683 46.1263 12.1603 45.6707 11.9731C40.4387 9.72965 34.6329 9.19186 29.0779 10.4361C23.5228 11.6803 18.5011 14.6433 14.726 18.9042C10.9509 23.1651 8.61435 28.5071 8.04831 34.1716C7.48227 39.8361 8.71549 45.5349 11.5728 50.4585C12.0454 51.2772 12.7241 51.9579 13.5413 52.433C14.3585 52.9081 15.2859 53.1611 16.2311 53.1668H53.7416C54.696 53.1706 55.6345 52.9221 56.4621 52.4465C57.2896 51.9709 57.9768 51.2851 58.454 50.4585C60.5459 46.8332 61.7691 42.7725 62.0275 38.595C62.286 34.4174 61.5727 30.2369 59.9436 26.3814C59.7373 25.942 59.4167 25.5661 59.0153 25.2931C58.6139 25.0201 58.1465 24.86 57.662 24.8296C57.1775 24.7991 56.6938 24.8994 56.2614 25.12C55.829 25.3406 55.4638 25.6734 55.204 26.0835Z" fill="url(#paint1_linear_48_27)"/>
<path d="M31.1811 34.0977C30.1647 35.1141 29.5938 36.4926 29.5938 37.93C29.5938 38.6417 29.7339 39.3465 30.0063 40.004C30.2787 40.6616 30.6779 41.259 31.1811 41.7623C31.6844 42.2656 32.2819 42.6648 32.9394 42.9371C33.597 43.2095 34.3017 43.3497 35.0134 43.3497C36.4508 43.3497 37.8293 42.7787 38.8457 41.7623L54.1749 18.7686L31.1811 34.0977Z" fill="black"/>
</g>
<defs>
<linearGradient id="paint0_linear_48_27" x1="32.9966" y1="11.7812" x2="32.9966" y2="55.1669" gradientUnits="userSpaceOnUse">
<stop stop-color="#1D53DD"/>
<stop offset="1" stop-color="#7296F2"/>
</linearGradient>
<linearGradient id="paint1_linear_48_27" x1="34.9966" y1="9.78125" x2="34.9966" y2="53.1669" gradientUnits="userSpaceOnUse">
<stop stop-color="#1D53DD"/>
<stop offset="1" stop-color="#7296F2"/>
</linearGradient>
</defs>
</svg>
