<svg width="68" height="66" viewBox="0 0 68 66" fill="none" xmlns="http://www.w3.org/2000/svg">
<path d="M18.6317 21.5267L9.05263 11.9476L11.4472 9.55298L21.0263 19.1321L18.6317 21.5267ZM14.1842 31.7899H0.5V35.2109H14.1842V31.7899ZM57.2895 11.6056L54.8949 9.21103L44.9735 19.1318L47.3681 21.5264L57.2895 11.6056ZM34.7105 1H31.2895V14.6842H34.7105V1ZM51.8158 31.7895V35.2106H65.5V31.7895H51.8158ZM44.9737 47.8684L54.5528 57.4475L56.9474 55.0529L47.3683 45.4738L44.9737 47.8684ZM31.2895 66H34.7105V52.3158H31.2895V66ZM8.71053 55.3944L11.1051 57.789L20.6842 48.2098L18.6319 45.4735L8.71053 55.3944ZM14.8686 38.9733L8.71053 41.7103L10.0787 44.7889L16.2367 42.0519L14.8686 38.9733ZM24.79 9.21006L21.7113 10.5782L24.4483 16.7363L27.527 15.3681L24.79 9.21006ZM49.7636 24.6048L51.1318 27.6835L57.2899 24.9464L55.9217 21.8678L49.7636 24.6048ZM41.211 57.7891L44.2896 56.421L41.5533 50.2622L38.4747 51.6304L41.211 57.7891ZM16.2373 24.6048L10.0793 21.8678L8.71048 24.9471L14.8685 27.6841L16.2373 24.6048ZM44.29 10.5788L41.2113 9.21064L38.4743 15.3687L41.553 16.7369L44.29 10.5788ZM51.1321 38.9736L49.7633 42.0522L55.9213 44.7892L57.2895 41.7106L51.1321 38.9736ZM21.711 56.421L24.7896 57.7892L27.5266 51.6311L24.448 50.263L21.711 56.421Z" fill="url(#paint0_linear_48_330)"/>
<path fill-rule="evenodd" clip-rule="evenodd" d="M48.7895 33.3948C48.7895 41.9474 41.9474 48.7895 33.3947 48.7895C24.8421 48.7895 18 41.9474 18 33.3948C18 24.8421 24.8421 18 33.3947 18C41.9474 18 48.7895 24.8421 48.7895 33.3948ZM33.3947 21.4211C39.8944 21.4211 45.3684 26.8951 45.3684 33.3948C45.3684 39.8945 39.8944 45.3685 33.3947 45.3685C26.8951 45.3685 21.4211 39.8945 21.4211 33.3948C21.4211 26.8951 26.8951 21.4211 33.3947 21.4211Z" fill="black"/>
<g opacity="0.2">
<path d="M20.6317 20.5267L11.0526 10.9476L13.4472 8.55298L23.0263 18.1321L20.6317 20.5267ZM16.1842 30.7899H2.5V34.2109H16.1842V30.7899ZM59.2895 10.6056L56.8949 8.21103L46.9735 18.1318L49.3681 20.5264L59.2895 10.6056ZM36.7105 0H33.2895V13.6842H36.7105V0ZM53.8158 30.7895V34.2106H67.5V30.7895H53.8158ZM46.9737 46.8684L56.5528 56.4475L58.9474 54.0529L49.3683 44.4738L46.9737 46.8684ZM33.2895 65H36.7105V51.3158H33.2895V65ZM10.7105 54.3944L13.1051 56.789L22.6842 47.2098L20.6319 44.4735L10.7105 54.3944ZM16.8686 37.9733L10.7105 40.7103L12.0787 43.7889L18.2367 41.0519L16.8686 37.9733ZM26.79 8.21006L23.7113 9.57822L26.4483 15.7363L29.527 14.3681L26.79 8.21006ZM51.7636 23.6048L53.1318 26.6835L59.2899 23.9464L57.9217 20.8678L51.7636 23.6048ZM43.211 56.7891L46.2896 55.421L43.5533 49.2622L40.4747 50.6304L43.211 56.7891ZM18.2373 23.6048L12.0793 20.8678L10.7105 23.9471L16.8685 26.6841L18.2373 23.6048ZM46.29 9.57881L43.2113 8.21064L40.4743 14.3687L43.553 15.7369L46.29 9.57881ZM53.1321 37.9736L51.7633 41.0522L57.9213 43.7892L59.2895 40.7106L53.1321 37.9736ZM23.711 55.421L26.7896 56.7892L29.5266 50.6311L26.448 49.263L23.711 55.421Z" fill="url(#paint1_linear_48_330)"/>
<path fill-rule="evenodd" clip-rule="evenodd" d="M50.7895 32.3948C50.7895 40.9474 43.9474 47.7895 35.3947 47.7895C26.8421 47.7895 20 40.9474 20 32.3948C20 23.8421 26.8421 17 35.3947 17C43.9474 17 50.7895 23.8421 50.7895 32.3948ZM35.3947 20.4211C41.8944 20.4211 47.3684 25.8951 47.3684 32.3948C47.3684 38.8945 41.8944 44.3685 35.3947 44.3685C28.8951 44.3685 23.4211 38.8945 23.4211 32.3948C23.4211 25.8951 28.8951 20.4211 35.3947 20.4211Z" fill="black"/>
</g>
<defs>
<linearGradient id="paint0_linear_48_330" x1="33" y1="1" x2="33" y2="66" gradientUnits="userSpaceOnUse">
<stop stop-color="#1D53DD"/>
<stop offset="1" stop-color="#7296F2"/>
</linearGradient>
<linearGradient id="paint1_linear_48_330" x1="35" y1="0" x2="35" y2="65" gradientUnits="userSpaceOnUse">
<stop stop-color="#1D53DD"/>
<stop offset="1" stop-color="#7296F2"/>
</linearGradient>
</defs>
</svg>
