<svg width="1920" height="596" viewBox="0 0 1920 596" fill="none" xmlns="http://www.w3.org/2000/svg">
<path fill-rule="evenodd" clip-rule="evenodd" d="M2288 137.748L1983.18 0.000218569C1862.66 46.699 1799.14 127.173 1592.82 184.118C1312.65 261.45 1106.93 285.723 879.032 222.149C651.135 158.575 497.595 145.986 268.691 199.713C-127.907 292.801 -318 625.997 -318 625.997L91.3193 625.999L226.622 626C347.144 626 590.462 626 832.642 626C1074.82 626 1318.14 626 1560.32 626C1802.5 626 2045.82 626 2166.34 626L2288 626L2288 137.748Z" fill="#7296F2"/>
<path fill-rule="evenodd" clip-rule="evenodd" d="M1969.07 69.8912L1860.85 122.162C1753.64 175.351 1449.82 326.35 1234.4 299.756C1018.97 274.079 931.185 210.041 715.76 166.023C500.335 122.004 376.463 79.2742 172.848 140.469C-179.935 246.494 -349.028 625.996 -349.028 625.996L15.0714 625.999L135.426 626C242.633 626 459.07 626 674.495 626C889.921 626 1106.36 626 1321.78 626C1537.21 626 1753.64 626 1860.85 626L1969.07 626L1969.07 69.8912Z" fill="#1D53DD"/>
<path fill-rule="evenodd" clip-rule="evenodd" d="M2076 320.904C2076 320.904 2008.11 345.315 1963.68 358.943C1754.68 423.043 1627.76 476.223 1404.16 451.116C1180.56 426.875 990.438 335.105 766.84 293.548C543.243 251.992 400.267 264.568 216.303 320.903C3.45779 386.084 -198 626 -198 626L60.4728 625.999L172.796 625.999C284.07 625.999 508.718 625.999 732.315 625.999C955.913 625.999 1180.56 625.999 1404.16 625.999C1627.76 625.999 1852.4 625.999 1963.68 625.999L2076 625.999L2076 320.904Z" fill="#103EB3"/>
</svg>
