<svg width="558" height="351" viewBox="0 0 558 351" fill="none" xmlns="http://www.w3.org/2000/svg">
<g opacity="0.15">
<path fill-rule="evenodd" clip-rule="evenodd" d="M180.672 39.8851C177.041 38.8434 171.228 37.2749 167.767 36.4067C164.301 35.5579 160.001 34.4758 158.202 33.9902C151.366 32.1562 145.29 30.6221 138.293 28.9357C134.323 27.9862 128.413 26.5313 125.151 25.7472C116.935 23.7329 110.484 22.5657 93.7123 20.0412C81.3203 18.1727 73.8032 18.5035 65.476 21.3297C60.1602 23.1235 54.4393 26.9238 51.508 30.5835C49.724 32.8488 47.1549 37.5065 45.6249 41.2991C43.5247 46.4434 38.3449 62.3777 35.9134 71.1056C33.1172 81.1834 31.8895 86.2663 30.8976 91.7625C30.491 94.0477 29.5481 98.3919 28.8131 101.449C28.1096 104.489 27.3094 108.401 27.0754 110.137C26.5546 113.773 26.5543 119.525 27.0515 121.985C27.2645 122.929 27.7528 125.438 28.1455 127.6C28.9198 131.707 30.4637 136.503 31.6949 138.627C33.5906 141.863 36.7925 144.812 40.8782 147.105C49.4309 151.86 57.5962 154.94 75.4101 160.091C93.993 165.486 103.608 167.832 107.55 167.984C108.692 168.035 109.646 168.139 109.725 168.244C110.042 168.855 103.38 181.253 100.916 184.67C96.78 190.354 91.0563 195.256 83.9324 199.202C79.0792 201.859 78.4237 202.327 78.1563 203.178C77.8075 204.288 78.5722 205.182 80.5561 206.07C81.5125 206.461 82.9728 207.204 83.8499 207.741C85.2214 208.515 85.8574 208.744 87.9502 209.097C90.6537 209.591 90.835 209.648 91.9176 210.245C94.0106 211.421 109.739 207.975 122.296 203.573C129.859 200.929 134.106 198.762 140.733 194.147C144.147 191.749 149.815 187.108 150.768 185.885C151.463 185.024 151.731 184.885 152.44 184.97C152.896 185.055 155.453 185.469 158.11 185.922C173.842 188.594 187.169 188.776 193.302 186.446C197.476 184.853 202.466 181.675 205.241 178.784C210.454 173.442 212.547 169.855 218.066 156.781C222.272 146.833 223.64 141.934 225.304 130.866C225.719 128.111 226.448 124.004 226.927 121.742C228.569 113.905 229.279 110.131 230.105 104.893C231.499 95.7823 232.244 89.0992 232.2 85.9936C232.133 81.9779 231.17 75.774 230.168 73.0217C228.569 68.6525 225.098 63.755 220.738 59.6426C215.184 54.4479 211.306 51.7686 204.309 48.3842C198.152 45.3793 191.978 43.1644 180.671 39.8831L180.672 39.8851ZM190.46 48.3494C201.282 52.2469 209.7 56.8786 213.173 60.8425C216.463 64.608 217.53 70.7326 217.245 84.1685C217.154 87.5965 217.127 91.5547 217.154 92.9837C217.317 99.5829 215.987 111.294 214.012 120.904C212.63 127.638 208.175 144.426 206.747 148.251C204.536 154.21 201.771 159.938 199.343 163.617C196.445 167.971 191.229 172.609 187.658 173.967C184.068 175.321 181.974 175.332 174.541 174.13C171.882 173.684 168.167 173.16 166.295 172.93C164.406 172.728 161.267 172.268 159.294 171.978C152.026 170.802 147.771 170.67 145.22 171.478C144.649 171.695 143.628 172.505 142.523 173.68C141.545 174.729 140.012 176.172 139.155 176.921C138.274 177.663 136.685 179.116 135.589 180.179C129.47 186.15 120.825 190.427 104.497 195.588C100.201 196.916 92.7944 198.814 92.6604 198.606C92.6309 198.511 93.2429 197.996 94.0511 197.403C98.4666 194.156 102.902 189.416 105.684 184.88C108.513 180.28 113.209 170.288 114.633 165.865C115.417 163.368 115.473 160.578 114.768 159.22C112.987 155.874 109.572 154.503 97.9077 152.469C90.402 151.165 87.8474 150.637 82.2499 149.197C79.6653 148.515 75.6799 147.508 73.4238 146.956C65.4445 144.99 49.9938 138.262 41.8981 133.227C34.7922 128.839 31.8102 124.913 31.4149 119.433C31.0933 114.793 31.5791 110.634 33.2428 103.992C33.8884 101.391 34.8308 97.2121 35.3033 94.7215C37.5359 83.1317 39.8899 74.4652 45.9296 55.7114C50.899 40.3405 51.1188 39.8132 54.1835 35.2004C56.2349 32.0843 58.4565 30.0707 62.1394 27.977C67.8322 24.7106 74.8553 23.1482 82.5893 23.3906C90.149 23.6372 111.129 27.0745 122.707 29.9309C125.089 30.5227 131.52 32.1085 137.004 33.4864C142.491 34.8319 149.738 36.7102 153.102 37.6075C156.458 38.535 162.933 40.2542 167.445 41.4566C180.812 45.0011 182.966 45.626 190.456 48.3454L190.46 48.3494ZM224.672 70.7935C225.331 72.1901 225.847 73.4356 225.807 73.5631C225.775 73.6653 225.094 73.0518 224.274 72.2262C222.941 70.8069 222.783 70.5056 222.524 68.8044C222.36 67.79 222.25 66.8736 222.273 66.8004C222.387 66.4381 223.589 68.4654 224.672 70.7935ZM224.867 74.8496C226.415 76.1372 226.508 76.2807 226.776 77.8708C226.935 78.7973 227.015 79.5324 226.961 79.5152C226.889 79.4924 226.007 78.7009 224.975 77.7495C223.527 76.4135 223.109 75.8501 223.083 75.2172C223.073 74.789 223.028 74.2113 223.008 73.9201C222.957 73.2805 222.957 73.2805 224.867 74.8496ZM225.413 80.756C227.425 82.3575 227.363 82.1989 227.371 85.5181L227.396 86.4286L226.153 85.3296C223.497 82.979 223.17 82.5044 223.135 80.9938C223.118 79.3432 223.144 79.1531 223.355 79.2199C223.457 79.2523 224.372 79.9416 225.413 80.7571L225.413 80.756ZM227.275 89.5946C227.236 90.3511 227.12 90.9919 227.018 91.0454C226.915 91.0988 225.984 90.2921 224.899 89.2376C223.266 87.6707 222.94 87.1947 222.923 86.4273C222.882 84.769 222.992 84.7774 225.23 86.5633L227.388 88.2448L227.275 89.5958L227.275 89.5946ZM225.014 91.4832L226.897 93.0507L226.815 94.3854C226.785 95.1116 226.668 95.7587 226.591 95.8135C226.496 95.8429 225.651 95.2025 224.728 94.3718C223.585 93.3325 222.965 92.5911 222.889 92.1156C222.793 91.2618 222.845 89.8329 223.002 89.883C223.05 89.8982 223.957 90.6114 225.014 91.4845L225.014 91.4832ZM225.087 96.6418C226.38 97.4775 226.417 97.549 226.249 98.6299C226.173 99.2291 226.035 99.7492 226.004 99.7656C225.83 99.8561 223.235 97.5846 223.002 97.1663C222.903 96.9361 222.818 96.4038 222.84 95.9541C222.884 95.2918 222.956 95.2275 223.338 95.4627C223.597 95.631 224.365 96.154 225.085 96.6414L225.087 96.6418ZM224.394 101.099L225.794 102.141L225.453 104.301C225.269 105.516 225.073 106.501 225.006 106.54C224.937 106.571 224.304 106.059 223.607 105.412L222.279 104.227L222.47 102.105C222.577 100.945 222.732 100.006 222.835 100.038C222.937 100.071 223.636 100.545 224.395 101.098L224.394 101.099ZM223.777 108.472C224.577 109.065 224.724 109.311 224.608 110.043C224.516 110.524 224.418 110.918 224.379 110.959C224.338 111.005 223.713 110.382 222.998 109.584C222.108 108.565 221.774 108.008 221.895 107.621C222.018 107.229 222.143 107.189 222.465 107.43C222.662 107.605 223.278 108.087 223.779 108.471L223.777 108.472ZM222.834 112.086C224.068 113.214 224.204 113.769 223.662 115.494L223.467 116.115L222.428 115.102C221.834 114.548 221.304 113.895 221.219 113.643C221.083 113.256 221.369 110.911 221.549 110.969C221.573 110.976 222.153 111.473 222.833 112.086L222.834 112.086ZM223.308 118.135C223.301 118.159 223.223 118.784 223.115 119.487L222.904 120.786L221.697 119.407C220.472 117.996 220.264 117.478 220.572 116.415L220.721 115.833L222.011 116.952C222.698 117.569 223.283 118.126 223.307 118.133L223.308 118.135ZM221.361 121.907C222.424 122.928 222.523 123.159 222.404 124.083C222.321 124.62 222.207 125.068 222.129 125.043C221.9 124.97 220.083 122.92 219.75 122.356C219.408 121.823 219.617 120.53 219.985 120.706C220.087 120.739 220.713 121.276 221.361 121.907ZM220.874 126.344C221.78 127.143 221.858 127.34 221.715 128.342C221.631 128.966 221.492 129.492 221.461 129.508C221.327 129.578 218.707 127.386 218.574 127.091C218.504 126.957 218.511 126.388 218.61 125.796C218.729 124.786 218.767 124.772 219.292 125.078C219.591 125.285 220.326 125.831 220.874 126.344ZM219.515 130.477L221.104 131.552L220.769 133.058C220.571 133.878 220.401 134.586 220.336 134.625C220.291 134.664 217.293 132.073 217.185 131.866C217.069 131.69 217.601 129.279 217.758 129.329C217.86 129.361 218.637 129.86 219.515 130.477ZM218.249 135.409L219.939 136.769L219.721 138.199C219.588 138.98 219.433 139.64 219.368 139.68C219.299 139.71 218.454 138.904 217.495 137.89C215.809 136.054 215.795 136.017 216.11 135.015C216.28 134.472 216.45 134.015 216.504 134.032C216.528 134.04 217.327 134.659 218.249 135.41L218.249 135.409ZM217.405 140.156C218.875 141.419 218.904 141.428 218.597 142.407C218.426 142.95 218.234 143.373 218.155 143.348C218.108 143.333 217.319 142.598 216.397 141.741C214.866 140.232 214.788 140.122 215.048 139.295C215.242 138.68 215.41 138.501 215.615 138.652C215.739 138.804 216.552 139.46 217.405 140.156ZM215.857 144.089C217.359 145.163 217.423 145.237 217.171 146.039C216.636 147.741 216.465 147.739 214.871 146.072C213.498 144.673 213.42 144.477 213.663 143.704C213.809 143.24 214.008 142.878 214.11 142.91C214.212 142.943 214.979 143.471 215.857 144.089ZM214.43 148C215.822 149.152 215.875 149.255 215.625 150.052L215.357 150.903L213.862 149.637C212.504 148.463 212.37 148.254 212.512 147.53C212.6 147.08 212.738 146.725 212.816 146.75C212.894 146.775 213.622 147.345 214.429 147.999L214.43 148ZM212.167 150.798C212.537 151.054 213.287 151.552 213.86 151.9L214.847 152.526L214.449 153.792C214.231 154.486 213.934 155.075 213.782 155.113C213.627 155.142 212.834 154.613 212.045 153.878L210.583 152.59L210.955 151.407C211.158 150.762 211.375 150.26 211.423 150.275C211.447 150.283 211.806 150.51 212.166 150.796L212.167 150.798ZM211.943 155.743L213.274 156.624L212.821 158.065C212.14 160.23 211.928 160.276 210.491 158.658C209.829 157.877 209.135 157.119 208.986 156.959C208.775 156.727 208.849 156.319 209.259 155.46C209.731 154.503 209.923 154.338 210.219 154.572C210.424 154.723 211.19 155.252 211.943 155.743ZM209.694 160.647L211.304 162.008L210.581 163.762C210.172 164.707 209.786 165.58 209.674 165.657C209.588 165.742 208.775 164.919 207.879 163.813L206.268 161.821L206.828 160.585C207.438 159.273 207.687 158.927 207.905 159.137C207.99 159.224 208.803 159.88 209.693 160.648L209.694 160.647ZM208.202 166.296C208.924 166.779 209.118 167.065 208.951 167.324C208.799 167.534 208.462 168.165 208.197 168.73C207.605 169.902 207.399 169.923 206.642 168.919C206.332 168.536 205.574 167.724 204.974 167.109C203.732 165.924 203.732 165.838 204.604 164.496L205.169 163.601L206.185 164.6C206.746 165.151 207.647 165.888 208.201 166.296L208.202 166.296ZM205.747 170.592C206.618 171.148 206.687 171.282 206.382 171.73C205.713 172.678 205.244 173.266 205.118 173.226C205.016 173.193 201.686 169.382 201.493 169.094C201.476 169.063 201.661 168.749 201.899 168.433L202.369 167.84L203.564 168.903C204.228 169.486 205.206 170.248 205.747 170.592ZM202.862 172.76L204.631 174.058L203.52 175.152L202.439 176.255L200.643 174.323C199.652 173.245 198.867 172.226 198.858 172.084C198.843 171.941 199.145 171.526 199.512 171.184C200.093 170.579 200.212 170.557 200.64 171.006C200.898 171.26 201.89 172.06 202.862 172.76ZM198.423 174.899C199.12 175.486 200.113 176.2 200.616 176.472C201.101 176.739 201.485 177.033 201.453 177.137C201.371 177.395 199.515 178.816 199.335 178.759C199.203 178.716 195.97 175.254 195.699 174.85C195.559 174.666 196.669 173.659 196.922 173.739C197.054 173.781 197.712 174.302 198.424 174.9L198.423 174.899ZM196.129 177.879C197.151 178.774 198.034 179.566 198.068 179.629C198.113 179.677 197.629 180.034 197.043 180.385L195.95 181.059L194.044 179.121C192.991 178.05 192.14 177.069 192.182 176.936C192.311 176.526 193.749 175.823 194.017 176.047C194.124 176.167 195.08 176.982 196.128 177.878L196.129 177.879ZM192.638 179.808L194.664 181.639L193.744 182.142C193.237 182.406 192.723 182.608 192.591 182.566C192.465 182.526 191.568 181.591 190.59 180.49C188.9 178.56 188.853 178.458 189.432 178.131C189.746 177.952 190.151 177.822 190.307 177.872C190.464 177.922 191.514 178.793 192.638 179.807L192.638 179.808ZM188.79 180.994C189.916 182.088 190.782 183.1 190.685 183.241C190.591 183.35 190.052 183.551 189.478 183.648L188.45 183.865L186.728 181.699C185.779 180.488 184.999 179.452 184.983 179.333C184.985 179.135 186.091 178.861 186.509 178.963C186.625 178.973 187.658 179.898 188.789 180.994L188.79 180.994ZM33.4141 132.6C33.9444 133.081 34.4078 133.858 34.4788 134.244C34.5211 134.656 34.9123 135.941 35.3733 137.083C35.9756 138.662 36.0258 139.048 35.6198 138.635C34.6842 137.654 31.7387 131.444 32.3041 131.623C32.3822 131.648 32.8661 132.087 33.4141 132.6ZM184.627 181.628C185.869 182.899 186.868 183.953 186.851 184.007C186.836 184.055 186.119 184.086 185.276 184.07L183.707 184.029L182.159 181.753L180.637 179.479L181.432 179.393C181.898 179.342 182.275 179.322 182.333 179.307C182.357 179.314 183.418 180.361 184.628 181.629L184.627 181.628ZM178.524 179.543C178.553 179.724 179.299 180.845 180.15 182.017L181.689 184.152L178.208 184.239L176.75 181.593C175.944 180.117 175.292 178.862 175.27 178.742C175.249 178.537 176.036 178.641 177.852 179.078C178.167 179.152 178.471 179.361 178.526 179.545L178.524 179.543ZM38.4139 136.492C38.6132 138.194 38.8404 139.009 39.4893 140.628L40.3067 142.619L39.1235 141.792C38.4807 141.33 37.8881 140.69 37.8212 140.356C37.7606 140.025 37.3866 138.685 37.0364 137.38L36.3479 134.979L37.3887 135.708C37.9516 136.086 38.4296 136.437 38.4126 136.492L38.4139 136.492ZM173.583 180.699C174.526 182.186 175.411 183.602 175.559 183.849C175.761 184.197 175.553 184.245 174.508 184.138L173.218 184.012L171.141 180.912C170.014 179.193 169.135 177.753 169.201 177.714C169.302 177.667 169.861 177.699 170.507 177.79C171.121 177.9 171.695 177.969 171.756 177.963C171.804 177.978 172.636 179.204 173.583 180.699ZM43.4353 141.77L45.2893 145.139L44.2076 144.623C42.2934 143.702 42.1838 143.588 41.6314 141.846C41.2993 140.924 40.7615 139.56 40.3667 138.837C40.0001 138.13 39.6997 137.464 39.7318 137.362C39.764 137.26 40.1821 137.446 40.6983 137.782C41.3015 138.198 42.1793 139.473 43.4353 141.77ZM167.714 179.034C168.315 179.901 169.357 181.28 169.988 182.138L171.158 183.637L169.786 183.513C166.079 183.158 166.447 183.421 164.469 179.985L162.724 176.902L164.055 176.987C166.235 177.168 166.549 177.328 167.714 179.033L167.714 179.034ZM109.449 165.16C109.282 165.166 108.105 163.684 106.846 161.923C104.604 158.716 104.58 158.709 105.439 158.842C106.256 158.956 106.46 159.193 108.042 162.079C109.012 163.774 109.646 165.169 109.449 165.16ZM110.667 160.929C111.745 162.007 112.043 163.038 111.567 164.194L111.142 165.273L109.734 163.014C108.96 161.772 108.04 160.379 107.737 159.91L107.152 159.075L108.636 159.745C109.452 160.117 110.362 160.632 110.667 160.928L110.667 160.929ZM104.856 160.529C105.483 161.776 106.19 163.023 106.456 163.359C106.968 163.98 106.927 164.557 106.408 164.139C105.751 163.618 102.416 158.393 102.641 158.204C103.149 157.769 103.787 158.43 104.855 160.527L104.856 160.529ZM47.3663 143.558L49.0247 146.58L47.8397 146.203C46.9129 145.909 46.5672 145.66 46.353 145.081C45.6268 143.351 44.5031 140.439 44.4333 140.132C44.3892 139.893 44.5533 139.918 45.0384 140.186C45.447 140.402 46.3966 141.804 47.3672 143.56L47.3663 143.558ZM102.651 160.618C104.06 163.335 104.092 163.49 103.454 163.454C102.901 163.424 102.559 163.057 101.735 161.721C101.175 160.807 100.329 159.457 99.839 158.764L98.9907 157.505L99.8886 157.619C100.384 157.664 100.872 157.733 100.982 157.741C101.084 157.774 101.813 159.054 102.651 160.621L102.651 160.618ZM162.156 179.616L164.066 182.718L162.869 182.57L161.636 182.43L159.78 179.346C158.272 176.856 157.988 176.222 158.397 176.187C159.752 176.106 160.239 176.54 162.157 179.617L162.156 179.616ZM99.0481 159.931C99.8222 161.597 100.121 162.541 99.8619 162.458C99.3507 162.296 96.2273 157.303 96.4903 157.074C96.6005 156.997 96.9462 156.994 97.2522 157.092C97.6376 157.214 98.214 158.161 99.047 159.931L99.0481 159.931ZM50.9673 145.074C52.1835 147.67 52.2346 147.886 51.639 147.697C51.2776 147.582 51.0038 147.382 51.0359 147.28C51.0756 147.154 50.5598 145.908 49.9008 144.511C49.0342 142.676 48.827 141.987 49.1884 142.102C49.4415 142.182 50.2413 143.511 50.967 145.076L50.9673 145.074ZM96.5712 159.43L97.9826 162.14L97.086 161.855C96.2851 161.601 95.9807 161.225 94.8806 159.058C93.6884 156.721 93.6336 156.539 94.2311 156.616C94.5857 156.669 94.9402 156.696 95.0271 156.697C95.1051 156.722 95.7953 157.936 96.5712 159.43ZM157.014 178.693C158.109 180.347 158.97 181.755 158.961 181.866C158.937 181.945 158.191 181.874 157.31 181.707L155.714 181.398L153.967 178.322C152.23 175.301 152.213 175.269 152.978 175.34C154.771 175.485 155.015 175.703 157.014 178.693ZM53.8695 144.922C54.078 145.44 54.5725 146.559 54.9106 147.462L55.5877 149.098L54.8435 148.94C54.3077 148.856 54.0174 148.598 53.8196 148.051C52.8812 145.458 52.3658 143.96 52.4055 143.833C52.5365 143.417 53.522 144.155 53.8708 144.923L53.8695 144.922ZM93.3433 158.655L94.222 160.892L93.3878 160.766C92.5994 160.661 92.3979 160.398 91.1906 158.11L89.8642 155.592L91.1524 156.001C92.4029 156.425 92.4508 156.44 93.3433 158.655ZM89.2586 156.448C89.4349 156.962 89.8763 157.977 90.2557 158.748L90.9119 160.177L90.0392 159.9C89.3176 159.671 88.9976 159.257 88.0682 157.516C87.4466 156.356 86.9849 155.3 87.017 155.198C87.0491 155.096 87.4905 155.123 88.0081 155.288C88.7296 155.517 89.0041 155.803 89.2582 156.449L89.2586 156.448ZM58.1133 148.081L59.1973 150.384L58.3007 150.099C57.4758 149.836 57.3657 149.663 56.9014 147.896C56.291 145.52 56.2696 145.487 56.7003 145.65C56.8728 145.731 57.5171 146.819 58.1129 148.083L58.1133 148.081ZM82.9611 155.78C83.4637 156.962 83.8808 157.97 83.8562 158.049C83.8316 158.127 83.5237 158.115 83.1636 158.001C82.8084 157.888 82.5572 157.696 82.5989 157.563C82.631 157.461 82.11 156.505 81.4527 155.441C80.7592 154.404 80.3191 153.469 80.4054 153.384C80.5093 153.304 80.9029 153.317 81.2882 153.44C81.8297 153.612 82.2259 154.162 82.9604 155.783L82.9611 155.78ZM86.0426 156.76C86.9217 158.744 86.9374 158.861 86.3546 158.843C85.8591 158.798 85.4921 158.344 84.5075 156.444L83.2686 154.066L84.1954 154.361C84.9963 154.615 85.2141 154.909 86.0426 156.76ZM149.728 176.151C149.998 176.748 150.836 178.122 151.598 179.214C152.338 180.272 152.867 181.203 152.731 181.272C152.574 181.308 152.046 181.367 151.54 181.378C150.65 181.407 150.541 181.313 149 179.098C148.13 177.826 147.071 176.414 146.696 175.984L145.97 175.157L147.288 175.005C149.022 174.792 149.171 174.867 149.727 176.152L149.728 176.151ZM60.9181 148.973C62.072 151.41 62.1008 151.591 61.3062 151.338C60.5053 151.084 60.4211 150.911 59.7256 148.62C58.9348 146.02 59.6114 146.203 60.9181 148.973ZM79.3228 154.935L80.258 157.076L79.2594 156.759C78.3867 156.481 78.1311 156.201 77.2399 154.445C76.187 152.406 76.2592 152.176 77.6809 152.601C78.2319 152.743 78.5978 153.284 79.3228 154.935ZM75.5115 153.836C75.9606 154.915 76.3453 155.859 76.3207 155.937C76.2961 156.015 75.8623 155.963 75.3447 155.799C74.574 155.554 74.2637 155.197 73.3404 153.543C72.3176 151.659 72.2943 151.565 72.9313 151.601C74.3668 151.626 74.6232 151.881 75.5119 153.835L75.5115 153.836ZM64.661 150.474C65.1662 151.457 65.5679 152.347 65.5358 152.45C65.5017 152.558 65.1321 152.553 64.748 152.431C64.1587 152.244 63.9167 151.854 63.4357 150.309C62.7068 147.868 63.3283 147.954 64.661 150.474ZM68.1636 151.646C68.5718 152.599 68.8955 153.465 68.8634 153.567C68.6928 154.11 67.7571 153.129 66.7803 151.372L65.6473 149.314L66.5439 149.599C67.2907 149.836 67.5324 150.138 68.1636 151.646ZM72.0754 153.055C72.864 154.865 72.9004 155.022 72.3589 154.85C71.9497 154.72 71.3987 153.948 70.7154 152.623L69.6781 150.595L70.4538 150.842C71.0671 151.037 71.3858 151.477 72.0741 153.055L72.0754 153.055ZM147.15 179.669L148.997 182.068L147.87 182.956C147.235 183.438 146.586 183.881 146.404 183.937C146.215 183.99 145.454 182.812 144.638 181.279L143.206 178.529L144.023 177.655C144.472 177.114 144.896 176.857 145.045 177.017C145.172 177.137 146.123 178.348 147.15 179.67L147.15 179.669ZM143.491 182.759C145.092 185.139 145.101 185.195 144.529 185.67L143.958 186.138L142.556 183.483C141.279 181.06 141.003 180.064 141.616 180.259C141.772 180.309 142.606 181.429 143.491 182.759ZM140.925 183.641C141.367 184.379 142.035 185.414 142.369 185.972L142.998 186.941L142.023 187.619C140.916 188.428 140.984 188.483 139.286 185.529L138.222 183.691L138.916 182.916C139.303 182.502 139.732 182.214 139.858 182.254C139.99 182.296 140.466 182.931 140.925 183.641ZM137.001 185.598C137.039 185.749 137.67 186.606 138.379 187.509C139.118 188.401 139.686 189.205 139.663 189.278C139.638 189.356 139.233 189.652 138.759 189.986L137.903 190.563L136.425 188.422L134.939 186.305L135.716 185.728C136.5 185.128 136.881 185.077 137 185.599L137.001 185.598ZM135.219 189.456C136.075 190.438 136.762 191.307 136.747 191.355C136.722 191.434 136.412 191.707 136.08 191.939L135.431 192.382L134.215 190.862C132.266 188.43 132.236 188.335 132.901 187.923C133.241 187.746 133.511 187.606 133.565 187.623C133.613 187.638 134.345 188.468 135.219 189.455L135.219 189.456ZM132.728 191.358L134.281 192.986L133.497 193.586C133.027 193.922 132.619 194.043 132.47 193.883C132.322 193.724 131.573 192.863 130.794 191.931C129.445 190.281 129.406 190.216 130.024 189.874C130.339 189.689 130.743 189.565 130.899 189.615C131.055 189.664 131.886 190.432 132.727 191.356L132.728 191.358ZM129.981 192.98L131.732 194.611L130.592 195.184C129.982 195.501 129.388 195.685 129.28 195.591C129.186 195.508 128.414 194.639 127.581 193.69L126.059 191.96L126.81 191.549C127.254 191.318 127.727 191.157 127.908 191.215C128.088 191.272 129.028 192.055 129.981 192.981L129.981 192.98ZM126.287 194.752L128.074 196.54L127.182 196.854L126.274 197.129L124.945 195.606C124.196 194.744 123.44 193.907 123.278 193.709C123.005 193.398 123.06 193.328 123.597 193.135C123.945 193.02 124.284 192.928 124.362 192.953C124.44 192.978 125.285 193.784 126.286 194.751L126.287 194.752ZM122.484 195.415C123.139 196.048 124.047 196.847 124.477 197.183L125.251 197.773L124.122 198.23C123.497 198.49 122.848 198.681 122.692 198.631C122.536 198.581 121.716 197.863 120.841 197.047C119.996 196.241 119.174 195.529 119.042 195.487C118.892 195.439 118.801 195.351 118.825 195.272C118.873 195.122 120.968 194.141 121.158 194.17C121.23 194.193 121.822 194.753 122.487 195.416L122.484 195.415ZM118.903 197.541C119.935 198.406 120.796 199.164 120.852 199.261C120.905 199.364 120.534 199.558 120.026 199.741L119.082 200.031L117.151 198.257L115.195 196.475L115.968 196.183C116.381 196.03 116.791 195.9 116.895 195.933C116.973 195.958 117.878 196.678 118.905 197.541L118.903 197.541ZM115.277 198.823C116.27 199.623 117.145 200.353 117.248 200.472C117.342 200.614 116.93 200.855 116.328 201.062L115.208 201.383L113.833 200.096C113.089 199.408 112.186 198.577 111.8 198.289L111.113 197.758L111.91 197.474C112.971 197.069 113.196 197.173 115.278 198.824L115.277 198.823ZM110.963 200.318C112.106 201.166 112.998 201.927 112.885 202.037C112.799 202.122 111.826 202.436 110.744 202.717L108.772 203.224L107.407 201.458C106.629 200.501 106.062 199.61 106.132 199.493C106.237 199.242 108.195 198.59 108.566 198.674C108.692 198.714 109.788 199.461 110.962 200.319L110.963 200.318ZM105.427 202.725L106.325 203.72L105.039 203.961L103.73 204.168L102.879 203.274C102.418 202.763 101.715 202.028 101.303 201.613L100.593 200.903L101.729 200.614C102.827 200.366 102.966 200.384 103.701 201.016C104.14 201.408 104.921 202.167 105.427 202.725ZM100.585 203.369L101.915 204.527L100.683 204.845C98.6869 205.345 98.4111 205.231 97.0146 203.567L95.737 202.053L97.0541 201.735C98.4523 201.416 98.3489 201.383 100.585 203.369ZM95.0889 204.03C95.8306 204.724 96.4233 205.364 96.3987 205.442C96.3741 205.521 95.7597 205.664 95.0273 205.742L93.7095 205.894L92.4305 204.552C91.7278 203.817 91.1749 203.157 91.1995 203.079C91.2717 202.849 92.9063 202.514 93.3231 202.62C93.5271 202.684 94.3237 203.31 95.0901 204.031L95.0889 204.03ZM90.3411 204.903C91.9035 206.335 91.9274 206.342 91.0458 206.261C89.6523 206.103 85.5378 204.709 85.7285 204.458C85.8223 204.349 86.5098 204.057 87.2822 203.851C88.0516 203.638 88.7066 203.449 88.7066 203.449C88.738 203.432 89.4654 204.088 90.3407 204.904L90.3411 204.903Z" fill="url(#paint0_linear_48_486)"/>
</g>
<g opacity="0.15">
<path fill-rule="evenodd" clip-rule="evenodd" d="M333.058 97.8628C337.597 96.5608 344.864 94.6001 349.19 93.5149C353.522 92.4538 358.897 91.1013 361.146 90.4942C369.691 88.2017 377.287 86.2841 386.032 84.1761C390.995 82.9892 398.382 81.1706 402.46 80.1905C412.73 77.6726 420.793 76.2136 441.758 73.0579C457.248 70.7223 466.644 71.1359 477.053 74.6685C483.698 76.9109 490.849 81.6612 494.513 86.2359C496.743 89.0674 499.955 94.8896 501.867 99.6304C504.493 106.061 510.967 125.979 514.007 136.888C517.502 149.486 519.037 155.839 520.276 162.71C520.785 165.566 521.963 170.996 522.882 174.817C523.761 178.618 524.762 183.508 525.054 185.678C525.705 190.223 525.706 197.413 525.084 200.488C524.818 201.667 524.207 204.805 523.717 207.506C522.749 212.64 520.819 218.635 519.28 221.29C516.91 225.336 512.908 229.022 507.801 231.888C497.11 237.832 486.903 241.681 464.636 248.12C441.407 254.864 429.389 257.797 424.461 257.987C423.033 258.05 421.841 258.181 421.742 258.311C421.345 259.076 429.674 274.573 432.754 278.844C437.923 285.949 445.078 292.077 453.983 297.009C460.049 300.33 460.869 300.915 461.203 301.979C461.639 303.366 460.683 304.484 458.203 305.595C457.008 306.082 455.182 307.011 454.086 307.682C452.372 308.651 451.577 308.936 448.961 309.377C445.581 309.995 445.355 310.067 444.001 310.813C441.385 312.283 421.724 307.975 406.028 302.473C396.575 299.167 391.266 296.459 382.982 290.69C378.714 287.692 371.63 281.891 370.438 280.363C369.57 279.287 369.235 279.112 368.349 279.219C367.778 279.325 364.582 279.843 361.261 280.409C341.595 283.749 324.937 283.976 317.271 281.064C312.054 279.072 305.816 275.101 302.348 271.486C295.831 264.809 293.215 260.325 286.316 243.983C281.059 231.548 279.349 225.424 277.269 211.589C276.749 208.146 275.839 203.012 275.239 200.185C273.187 190.387 272.3 185.67 271.267 179.122C269.524 167.734 268.594 159.38 268.648 155.498C268.733 150.479 269.936 142.724 271.189 139.284C273.187 133.822 277.526 127.7 282.975 122.56C289.919 116.066 294.766 112.717 303.513 108.487C311.209 104.731 318.926 101.962 333.059 97.8604L333.058 97.8628ZM320.823 108.443C307.297 113.315 296.774 119.105 292.432 124.06C288.32 128.766 286.986 136.422 287.342 153.217C287.457 157.502 287.49 162.45 287.456 164.236C287.252 172.485 288.915 187.124 291.383 199.137C293.111 207.553 298.68 228.538 300.465 233.32C303.228 240.768 306.685 247.929 309.72 252.528C313.342 257.97 319.863 263.768 324.326 265.466C328.813 267.158 331.431 267.171 340.722 265.669C344.046 265.111 348.689 264.456 351.03 264.169C353.392 263.916 357.314 263.341 359.782 262.978C368.866 261.509 374.185 261.344 377.373 262.354C378.087 262.626 379.364 263.638 380.745 265.106C381.967 266.418 383.883 268.222 384.955 269.158C386.056 270.085 388.042 271.901 389.412 273.231C397.06 280.694 407.867 286.04 428.277 292.491C433.647 294.151 442.905 296.524 443.073 296.265C443.11 296.145 442.345 295.501 441.335 294.76C435.815 290.701 430.271 284.777 426.794 279.107C423.257 273.356 417.387 260.867 415.608 255.337C414.627 252.216 414.558 248.729 415.438 247.031C417.665 242.85 421.934 241.135 436.514 238.592C445.896 236.962 449.089 236.303 456.086 234.503C459.317 233.65 464.299 232.391 467.119 231.701C477.093 229.244 496.406 220.834 506.526 214.541C515.408 209.056 519.136 204.148 519.63 197.297C520.032 191.498 519.425 186.299 517.345 177.997C516.538 174.746 515.36 169.522 514.769 166.408C511.979 151.921 509.036 141.088 501.486 117.646C495.275 98.4321 495 97.773 491.169 92.007C488.605 88.1118 485.828 85.5948 481.224 82.9777C474.108 78.8947 465.329 76.9418 455.662 77.2448C446.212 77.553 419.988 81.8496 405.515 85.4201C402.537 86.1599 394.499 88.1421 387.644 89.8644C380.785 91.5463 371.727 93.8942 367.521 95.0158C363.326 96.1753 355.233 98.3242 349.592 99.8272C332.883 104.258 330.191 105.039 320.828 108.438L320.823 108.443ZM278.059 136.498C277.234 138.244 276.59 139.801 276.64 139.96C276.68 140.088 277.531 139.321 278.556 138.289C280.223 136.515 280.42 136.138 280.743 134.012C280.949 132.744 281.086 131.598 281.057 131.507C280.915 131.054 279.412 133.588 278.059 136.498ZM277.815 141.568C275.88 143.178 275.763 143.357 275.429 145.345C275.23 146.503 275.129 147.422 275.197 147.4C275.287 147.372 276.39 146.383 277.68 145.193C279.489 143.523 280.012 142.819 280.044 142.028C280.058 141.493 280.113 140.771 280.139 140.407C280.203 139.607 280.203 139.607 277.815 141.568ZM277.132 148.951C274.617 150.953 274.695 150.755 274.685 154.904L274.653 156.042L276.207 154.668C279.527 151.73 279.936 151.137 279.98 149.249C280.001 147.185 279.968 146.948 279.705 147.031C279.578 147.072 278.434 147.933 277.132 148.953L277.132 148.951ZM274.804 160C274.854 160.945 274.998 161.746 275.127 161.813C275.255 161.88 276.418 160.872 277.775 159.554C279.815 157.595 280.224 157 280.244 156.041C280.296 153.968 280.159 153.978 277.362 156.211L274.663 158.312L274.805 160.001L274.804 160ZM277.631 162.361L275.277 164.32L275.379 165.988C275.417 166.896 275.564 167.705 275.66 167.773C275.779 167.81 276.834 167.01 277.988 165.971C279.417 164.672 280.192 163.745 280.287 163.151C280.407 162.084 280.343 160.298 280.146 160.36C280.086 160.379 278.952 161.271 277.631 162.362L277.631 162.361ZM277.54 168.809C275.924 169.853 275.878 169.943 276.088 171.294C276.183 172.043 276.354 172.693 276.393 172.713C276.611 172.827 279.855 169.987 280.146 169.464C280.27 169.177 280.376 168.511 280.348 167.949C280.294 167.121 280.203 167.041 279.726 167.335C279.402 167.545 278.443 168.199 277.542 168.808L277.54 168.809ZM278.406 174.38L276.657 175.682L277.083 178.383C277.312 179.901 277.558 181.133 277.64 181.182C277.727 181.22 278.518 180.58 279.389 179.772L281.05 178.29L280.811 175.637C280.678 174.187 280.484 173.013 280.355 173.054C280.227 173.095 279.354 173.688 278.404 174.379L278.406 174.38ZM279.177 183.597C278.177 184.338 277.993 184.645 278.139 185.56C278.254 186.162 278.375 186.654 278.424 186.705C278.475 186.763 279.257 185.984 280.15 184.986C281.263 183.713 281.681 183.016 281.53 182.533C281.375 182.042 281.22 181.993 280.817 182.294C280.571 182.513 279.801 183.115 279.175 183.596L279.177 183.597ZM280.356 188.114C278.813 189.524 278.643 190.217 279.321 192.374L279.565 193.15L280.864 191.884C281.605 191.192 282.268 190.375 282.375 190.06C282.545 189.576 282.187 186.646 281.962 186.717C281.932 186.727 281.208 187.347 280.358 188.114L280.356 188.114ZM279.763 195.675C279.773 195.705 279.869 196.487 280.005 197.365L280.268 198.989L281.778 197.265C283.308 195.501 283.569 194.854 283.184 193.526L282.997 192.797L281.385 194.197C280.526 194.968 279.794 195.664 279.764 195.673L279.763 195.675ZM282.197 200.39C280.869 201.667 280.745 201.956 280.893 203.11C280.997 203.781 281.14 204.342 281.238 204.31C281.524 204.219 283.795 201.656 284.211 200.952C284.638 200.285 284.378 198.668 283.917 198.889C283.79 198.93 283.007 199.602 282.197 200.39ZM282.806 205.936C281.673 206.935 281.575 207.181 281.755 208.434C281.859 209.213 282.033 209.871 282.072 209.892C282.24 209.979 285.515 207.239 285.681 206.871C285.769 206.702 285.76 205.992 285.637 205.252C285.487 203.989 285.44 203.971 284.783 204.353C284.409 204.613 283.491 205.295 282.806 205.936ZM284.505 211.103L282.519 212.447L282.937 214.329C283.185 215.354 283.397 216.239 283.478 216.288C283.535 216.336 287.282 213.097 287.417 212.839C287.563 212.619 286.897 209.605 286.701 209.667C286.573 209.708 285.602 210.332 284.505 211.103ZM286.087 217.267L283.974 218.968L284.247 220.756C284.414 221.732 284.607 222.557 284.688 222.606C284.775 222.644 285.831 221.637 287.029 220.369C289.137 218.073 289.155 218.028 288.761 216.775C288.548 216.096 288.336 215.525 288.268 215.547C288.238 215.556 287.24 216.33 286.088 217.269L286.087 217.267ZM287.142 223.202C285.304 224.781 285.268 224.792 285.653 226.015C285.866 226.693 286.107 227.223 286.204 227.191C286.264 227.172 287.249 226.254 288.402 225.183C290.316 223.297 290.413 223.159 290.088 222.125C289.847 221.357 289.636 221.132 289.38 221.321C289.225 221.511 288.209 222.332 287.142 223.202ZM289.077 228.118C287.2 229.461 287.119 229.552 287.435 230.556C288.103 232.683 288.317 232.681 290.309 230.597C292.026 228.848 292.124 228.602 291.82 227.637C291.638 227.056 291.388 226.604 291.261 226.645C291.133 226.685 290.174 227.346 289.077 228.118ZM290.861 233.007C289.122 234.447 289.055 234.576 289.368 235.571L289.702 236.635L291.571 235.053C293.269 233.585 293.436 233.324 293.259 232.418C293.148 231.857 292.976 231.413 292.878 231.444C292.781 231.475 291.871 232.188 290.862 233.005L290.861 233.007ZM293.69 236.504C293.228 236.824 292.289 237.447 291.574 237.881L290.34 238.664L290.837 240.246C291.11 241.114 291.481 241.85 291.671 241.897C291.865 241.935 292.856 241.272 293.842 240.353L295.669 238.743L295.205 237.265C294.951 236.459 294.68 235.832 294.62 235.851C294.59 235.86 294.141 236.144 293.691 236.502L293.69 236.504ZM293.97 242.685L292.306 243.786L292.873 245.588C293.723 248.294 293.989 248.352 295.785 246.329C296.613 245.352 297.48 244.405 297.666 244.205C297.93 243.915 297.837 243.405 297.325 242.332C296.734 241.135 296.495 240.93 296.124 241.221C295.869 241.41 294.911 242.072 293.97 242.685ZM296.781 248.815L294.768 250.517L295.672 252.71C296.183 253.89 296.666 254.981 296.805 255.077C296.913 255.184 297.93 254.156 299.05 252.772L301.064 250.283L300.364 248.738C299.601 247.098 299.29 246.666 299.017 246.928C298.911 247.036 297.895 247.857 296.782 248.816L296.781 248.815ZM298.646 255.877C297.743 256.48 297.501 256.838 297.71 257.162C297.9 257.425 298.321 258.212 298.652 258.919C299.393 260.384 299.65 260.41 300.596 259.155C300.984 258.676 301.931 257.662 302.681 256.892C304.234 255.411 304.233 255.304 303.143 253.627L302.437 252.508L301.167 253.757C300.466 254.445 299.339 255.367 298.648 255.877L298.646 255.877ZM301.715 261.246C300.626 261.941 300.539 262.109 300.921 262.668C301.757 263.853 302.343 264.589 302.501 264.539C302.628 264.498 306.791 259.734 307.033 259.374C307.053 259.335 306.822 258.943 306.525 258.548L305.937 257.806L304.443 259.135C303.613 259.864 302.39 260.817 301.715 261.246ZM305.321 263.956L303.11 265.579L304.499 266.946L305.85 268.325L308.095 265.911C309.333 264.563 310.314 263.289 310.326 263.112C310.344 262.933 309.967 262.414 309.509 261.987C308.783 261.23 308.634 261.203 308.098 261.763C307.776 262.081 306.535 263.081 305.321 263.956ZM310.869 266.631C309.999 267.364 308.757 268.256 308.129 268.597C307.522 268.93 307.042 269.298 307.083 269.427C307.184 269.751 309.505 271.526 309.73 271.455C309.895 271.402 313.937 267.074 314.275 266.569C314.45 266.339 313.062 265.08 312.746 265.18C312.581 265.233 311.759 265.884 310.868 266.631L310.869 266.631ZM313.737 270.355C312.459 271.474 311.356 272.464 311.313 272.543C311.257 272.602 311.862 273.049 312.595 273.487L313.961 274.331L316.344 271.907C317.66 270.569 318.723 269.343 318.671 269.177C318.51 268.664 316.712 267.785 316.377 268.065C316.243 268.215 315.048 269.233 313.738 270.354L313.737 270.355ZM318.101 272.767L315.569 275.055L316.719 275.684C317.352 276.014 317.994 276.266 318.159 276.214C318.317 276.164 319.439 274.995 320.661 273.619C322.774 271.207 322.832 271.079 322.108 270.67C321.716 270.446 321.209 270.284 321.014 270.347C320.819 270.409 319.506 271.497 318.1 272.765L318.101 272.767ZM322.911 274.249C321.504 275.616 320.421 276.882 320.542 277.058C320.66 277.195 321.334 277.445 322.051 277.566L323.336 277.838L325.489 275.13C326.675 273.617 327.649 272.321 327.67 272.172C327.667 271.925 326.285 271.583 325.762 271.71C325.617 271.723 324.326 272.879 322.912 274.248L322.911 274.249ZM517.131 213.756C516.468 214.357 515.889 215.329 515.8 215.812C515.747 216.327 515.258 217.933 514.682 219.361C513.929 221.334 513.866 221.817 514.374 221.3C515.543 220.074 519.225 212.311 518.518 212.536C518.421 212.567 517.816 213.115 517.131 213.756ZM328.115 275.042C326.563 276.63 325.313 277.947 325.334 278.015C325.353 278.075 326.25 278.115 327.303 278.094L329.265 278.043L331.199 275.198L333.102 272.355L332.109 272.247C331.526 272.184 331.054 272.159 330.983 272.14C330.953 272.149 329.626 273.458 328.114 275.042L328.115 275.042ZM335.743 272.435C335.707 272.662 334.774 274.062 333.711 275.528L331.787 278.196L336.139 278.305L337.961 274.998C338.969 273.152 339.783 271.583 339.811 271.434C339.837 271.177 338.853 271.308 336.584 271.854C336.19 271.946 335.81 272.207 335.741 272.438L335.743 272.435ZM510.881 218.621C510.632 220.748 510.348 221.767 509.537 223.792L508.515 226.281L509.994 225.247C510.798 224.668 511.538 223.869 511.622 223.452C511.698 223.037 512.165 221.363 512.603 219.732L513.464 216.73L512.163 217.642C511.459 218.113 510.861 218.553 510.883 218.621L510.881 218.621ZM341.919 273.881C340.741 275.739 339.635 277.508 339.45 277.817C339.197 278.253 339.457 278.313 340.763 278.179L342.376 278.022L344.972 274.146C346.381 271.997 347.479 270.198 347.397 270.149C347.271 270.09 346.572 270.13 345.765 270.245C344.997 270.381 344.28 270.468 344.203 270.46C344.143 270.479 343.103 272.012 341.919 273.881ZM504.604 225.219L502.287 229.43L503.639 228.785C506.032 227.634 506.169 227.491 506.859 225.314C507.274 224.162 507.947 222.456 508.44 221.553C508.898 220.67 509.274 219.837 509.234 219.709C509.193 219.581 508.671 219.813 508.026 220.234C507.272 220.754 506.174 222.348 504.604 225.219ZM349.256 271.799C348.505 272.883 347.203 274.607 346.414 275.678L344.951 277.552L346.665 277.398C351.299 276.954 350.84 277.283 353.313 272.988L355.493 269.134L353.83 269.24C351.105 269.467 350.712 269.666 349.256 271.797L349.256 271.799ZM422.087 254.456C422.296 254.464 423.767 252.612 425.341 250.411C428.143 246.402 428.173 246.392 427.1 246.56C426.078 246.702 425.823 246.998 423.846 250.605C422.633 252.724 421.841 254.468 422.087 254.456ZM420.565 249.168C419.218 250.516 418.845 251.804 419.44 253.25L419.971 254.598L421.73 251.774C422.699 250.221 423.848 248.48 424.227 247.895L424.958 246.85L423.104 247.687C422.083 248.152 420.946 248.797 420.565 249.166L420.565 249.168ZM427.828 248.668C427.044 250.227 426.161 251.785 425.829 252.205C425.188 252.981 425.24 253.702 425.888 253.18C426.71 252.529 430.878 245.997 430.598 245.762C429.963 245.218 429.165 246.044 427.83 248.665L427.828 248.668ZM499.691 227.454L497.618 231.231L499.099 230.76C500.257 230.392 500.689 230.081 500.957 229.358C501.865 227.195 503.27 223.555 503.357 223.172C503.412 222.873 503.207 222.904 502.601 223.239C502.09 223.508 500.903 225.262 499.689 227.456L499.691 227.454ZM430.585 248.779C428.823 252.175 428.784 252.369 429.581 252.324C430.273 252.287 430.7 251.828 431.73 250.157C432.43 249.015 433.487 247.327 434.1 246.461L435.16 244.888L434.038 245.03C433.418 245.086 432.808 245.172 432.671 245.183C432.544 245.223 431.632 246.823 430.584 248.783L430.585 248.779ZM356.204 272.527L353.816 276.404L355.312 276.219L356.854 276.045L359.174 272.189C361.058 269.077 361.413 268.284 360.902 268.24C359.208 268.139 358.6 268.682 356.202 272.528L356.204 272.527ZM435.088 247.92C434.121 250.003 433.747 251.182 434.071 251.079C434.71 250.876 438.614 244.635 438.286 244.349C438.148 244.253 437.716 244.249 437.333 244.371C436.851 244.524 436.131 245.708 435.09 247.92L435.088 247.92ZM495.189 229.35C493.669 232.594 493.605 232.864 494.35 232.627C494.801 232.484 495.144 232.234 495.104 232.107C495.054 231.949 495.699 230.392 496.522 228.645C497.606 226.351 497.865 225.49 497.413 225.634C497.097 225.734 496.097 227.395 495.19 229.351L495.189 229.35ZM438.184 247.294L436.42 250.682L437.541 250.325C438.542 250.007 438.923 249.537 440.298 246.829C441.788 243.908 441.856 243.68 441.11 243.777C440.666 243.843 440.223 243.876 440.115 243.878C440.017 243.909 439.154 245.427 438.184 247.294ZM362.631 271.373C361.262 273.441 360.186 275.201 360.197 275.34C360.228 275.437 361.159 275.35 362.26 275.14L364.256 274.754L366.439 270.908C368.611 267.133 368.632 267.093 367.676 267.182C365.434 267.363 365.13 267.635 362.631 271.373ZM491.562 229.159C491.301 229.806 490.683 231.205 490.26 232.334L489.414 234.378L490.344 234.182C491.014 234.076 491.377 233.755 491.624 233.07C492.797 229.829 493.441 227.956 493.392 227.798C493.228 227.278 491.996 228.2 491.56 229.16L491.562 229.159ZM442.219 246.325L441.121 249.122L442.164 248.964C443.149 248.833 443.401 248.504 444.91 245.644L446.568 242.496L444.958 243.008C443.395 243.538 443.335 243.557 442.219 246.325ZM447.325 243.566C447.105 244.209 446.553 245.477 446.079 246.442L445.259 248.228L446.349 247.881C447.251 247.595 447.651 247.077 448.813 244.901C449.59 243.452 450.167 242.132 450.127 242.004C450.087 241.876 449.535 241.911 448.888 242.116C447.986 242.403 447.643 242.76 447.326 243.568L447.325 243.566ZM486.257 233.108L484.902 235.986L486.023 235.63C487.054 235.302 487.191 235.085 487.772 232.877C488.535 229.906 488.561 229.865 488.023 230.069C487.807 230.17 487.002 231.53 486.257 233.11L486.257 233.108ZM455.197 242.732C454.569 244.209 454.047 245.47 454.078 245.567C454.109 245.665 454.494 245.65 454.944 245.507C455.388 245.366 455.702 245.126 455.65 244.96C455.61 244.832 456.261 243.638 457.083 242.308C457.949 241.012 458.5 239.843 458.392 239.736C458.262 239.637 457.77 239.653 457.288 239.806C456.611 240.021 456.116 240.709 455.198 242.735L455.197 242.732ZM451.345 243.956C450.246 246.436 450.227 246.583 450.955 246.56C451.575 246.504 452.033 245.936 453.264 243.561L454.813 240.589L453.654 240.957C452.653 241.276 452.381 241.643 451.345 243.956ZM371.738 268.195C371.401 268.941 370.353 270.659 369.401 272.024C368.476 273.347 367.815 274.51 367.985 274.596C368.181 274.642 368.841 274.715 369.474 274.729C370.586 274.766 370.722 274.648 372.648 271.879C373.736 270.289 375.06 268.524 375.528 267.987L376.436 266.952L374.788 266.762C372.62 266.497 372.435 266.591 371.74 268.196L371.738 268.195ZM482.751 234.223C481.308 237.269 481.272 237.495 482.266 237.18C483.267 236.861 483.372 236.646 484.241 233.782C485.23 230.531 484.384 230.76 482.751 234.223ZM459.745 241.675L458.576 244.351L459.824 243.955C460.915 243.608 461.235 243.258 462.349 241.063C463.665 238.513 463.574 238.226 461.797 238.758C461.109 238.935 460.651 239.612 459.745 241.675ZM464.509 240.302C463.948 241.65 463.467 242.83 463.498 242.928C463.528 243.026 464.071 242.961 464.718 242.755C465.681 242.449 466.069 242.003 467.223 239.935C468.501 237.58 468.531 237.463 467.734 237.508C465.94 237.539 465.619 237.857 464.509 240.3L464.509 240.302ZM478.072 236.098C477.441 237.328 476.939 238.441 476.979 238.568C477.021 238.704 477.483 238.698 477.963 238.545C478.7 238.311 479.003 237.824 479.604 235.893C480.515 232.842 479.738 232.948 478.072 236.098ZM473.694 237.565C473.184 238.756 472.779 239.837 472.819 239.965C473.032 240.643 474.202 239.418 475.423 237.221L476.839 234.649L475.719 235.005C474.785 235.302 474.483 235.679 473.694 237.565ZM468.804 239.325C467.818 241.587 467.773 241.784 468.45 241.569C468.961 241.406 469.65 240.441 470.504 238.785L471.801 236.25L470.831 236.558C470.065 236.802 469.666 237.352 468.806 239.325L468.804 239.325ZM374.962 272.592L372.653 275.591L374.061 276.702C374.855 277.303 375.666 277.858 375.894 277.928C376.129 277.993 377.081 276.521 378.101 274.606L379.891 271.168L378.869 270.075C378.309 269.399 377.779 269.078 377.592 269.278C377.433 269.428 376.245 270.942 374.96 272.595L374.962 272.592ZM379.534 276.455C377.533 279.43 377.522 279.5 378.237 280.093L378.95 280.679L380.704 277.36C382.3 274.331 382.645 273.087 381.878 273.331C381.683 273.393 380.641 274.793 379.534 276.455ZM382.743 277.558C382.189 278.48 381.355 279.774 380.937 280.471L380.151 281.682L381.369 282.53C382.754 283.541 382.668 283.61 384.791 279.917L386.121 277.62L385.254 276.652C384.769 276.134 384.234 275.773 384.076 275.823C383.911 275.876 383.316 276.671 382.743 277.558ZM387.648 280.004C387.6 280.193 386.811 281.264 385.925 282.393C385.001 283.508 384.291 284.512 384.32 284.604C384.351 284.701 384.857 285.072 385.45 285.489L386.52 286.211L388.368 283.534L390.225 280.887L389.254 280.167C388.273 279.416 387.798 279.352 387.648 280.006L387.648 280.004ZM389.875 284.827C388.805 286.054 387.946 287.141 387.965 287.201C387.996 287.298 388.384 287.64 388.799 287.93L389.61 288.484L391.13 286.583C393.567 283.544 393.603 283.425 392.772 282.91C392.347 282.689 392.01 282.514 391.942 282.535C391.882 282.554 390.967 283.591 389.875 284.825L389.875 284.827ZM392.989 287.204L391.047 289.239L392.027 289.989C392.614 290.409 393.125 290.561 393.311 290.361C393.496 290.161 394.432 289.085 395.406 287.92C397.092 285.858 397.14 285.777 396.369 285.349C395.974 285.118 395.47 284.963 395.275 285.025C395.08 285.087 394.041 286.047 392.99 287.202L392.989 287.204ZM396.422 289.231L394.234 291.27L395.659 291.987C396.421 292.383 397.163 292.613 397.299 292.495C397.415 292.392 398.381 291.306 399.423 290.119L401.324 287.956L400.386 287.442C399.831 287.154 399.24 286.953 399.013 287.025C398.788 287.096 397.614 288.075 396.423 289.233L396.422 289.231ZM401.04 291.446L398.806 293.682L399.921 294.074L401.056 294.417L402.717 292.513C403.653 291.437 404.598 290.39 404.801 290.143C405.143 289.754 405.074 289.666 404.402 289.425C403.968 289.282 403.544 289.167 403.446 289.198C403.348 289.229 402.292 290.236 401.041 291.446L401.04 291.446ZM405.793 292.275C404.975 293.066 403.84 294.065 403.302 294.485L402.334 295.223L403.746 295.794C404.527 296.119 405.338 296.357 405.533 296.295C405.728 296.233 406.753 295.335 407.847 294.316C408.904 293.308 409.931 292.418 410.096 292.365C410.283 292.306 410.397 292.195 410.367 292.097C410.308 291.909 407.689 290.683 407.451 290.719C407.361 290.747 406.621 291.448 405.79 292.276L405.793 292.275ZM410.269 294.932C408.98 296.014 407.903 296.962 407.834 297.083C407.767 297.211 408.231 297.454 408.866 297.683L410.046 298.046L412.46 295.827L414.904 293.6L413.938 293.235C413.422 293.044 412.909 292.882 412.78 292.923C412.683 292.954 411.551 293.854 410.268 294.933L410.269 294.932ZM414.802 296.536C413.562 297.536 412.467 298.448 412.338 298.596C412.221 298.774 412.737 299.075 413.488 299.334L414.888 299.735L416.607 298.126C417.537 297.267 418.666 296.227 419.149 295.868L420.007 295.204L419.011 294.849C417.684 294.342 417.403 294.473 414.801 296.536L414.802 296.536ZM420.195 298.404C418.766 299.464 417.651 300.415 417.792 300.552C417.9 300.659 419.116 301.051 420.468 301.403L422.934 302.037L424.639 299.829C425.612 298.633 426.321 297.519 426.234 297.373C426.102 297.059 423.654 296.244 423.191 296.35C423.033 296.4 421.663 297.333 420.196 298.405L420.195 298.404ZM427.114 301.413L425.992 302.656L427.6 302.957L429.236 303.217L430.299 302.099C430.876 301.46 431.754 300.542 432.27 300.022L433.157 299.135L431.737 298.774C430.365 298.464 430.19 298.486 429.272 299.276C428.723 299.767 427.747 300.715 427.114 301.413ZM433.167 302.217L431.505 303.665L433.044 304.063C435.54 304.687 435.885 304.545 437.63 302.465L439.227 300.572L437.581 300.176C435.833 299.777 435.962 299.736 433.167 302.217ZM440.037 303.045C439.11 303.912 438.369 304.711 438.4 304.809C438.431 304.907 439.199 305.086 440.114 305.184L441.762 305.374L443.36 303.696C444.239 302.778 444.93 301.953 444.899 301.855C444.809 301.568 442.766 301.148 442.245 301.281C441.99 301.362 440.994 302.144 440.036 303.045L440.037 303.045ZM445.972 304.135C444.019 305.925 443.989 305.935 445.091 305.832C446.833 305.635 451.976 303.892 451.738 303.579C451.621 303.443 450.761 303.078 449.796 302.82C448.834 302.553 448.015 302.317 448.015 302.317C447.976 302.297 447.067 303.117 445.973 304.136L445.972 304.135Z" fill="url(#paint1_linear_48_486)"/>
</g>
<defs>
<linearGradient id="paint0_linear_48_486" x1="153.296" y1="31.0576" x2="95.8437" y2="211.824" gradientUnits="userSpaceOnUse">
<stop stop-color="#1D53DD"/>
<stop offset="1" stop-color="#7296F2"/>
</linearGradient>
<linearGradient id="paint1_linear_48_486" x1="367.278" y1="86.8284" x2="439.094" y2="312.787" gradientUnits="userSpaceOnUse">
<stop stop-color="#1D53DD"/>
<stop offset="1" stop-color="#7296F2"/>
</linearGradient>
</defs>
</svg>
