<svg width="330" height="70" viewBox="0 0 330 70" fill="none" xmlns="http://www.w3.org/2000/svg">
<path d="M134.924 26.2786C134.824 26.3414 134.693 26.3728 134.521 26.3728H134.411C133.524 26.3205 132.406 26.2576 131.076 26.1843C129.746 26.111 128.286 26.0691 126.704 26.0691C125.958 26.0691 125.294 26.1738 124.679 26.3728C124.075 26.5823 123.561 26.928 123.138 27.4308C122.715 27.9336 122.392 28.604 122.171 29.4524C121.949 30.3009 121.838 31.3589 121.838 32.6158V37.4343C121.838 38.7751 121.969 39.8645 122.231 40.7129C122.493 41.5614 122.825 42.2318 123.228 42.7136C123.631 43.1955 124.085 43.5411 124.578 43.7192C125.072 43.8973 125.545 43.9916 125.989 43.9916C127.006 43.9916 127.953 43.9497 128.84 43.8763V35.0041C128.84 34.7946 128.91 34.6166 129.041 34.4594C129.172 34.3023 129.343 34.229 129.545 34.229H134.29C134.491 34.229 134.662 34.3023 134.814 34.4594C134.965 34.6166 135.035 34.7946 135.035 35.0041V47.9615C135.035 48.4538 134.783 48.7471 134.29 48.8519C133.272 49.0614 132.104 49.2395 130.764 49.4071C129.424 49.5747 127.832 49.6585 125.979 49.6585C125.283 49.6585 124.538 49.5851 123.732 49.428C122.926 49.2709 122.14 49.0195 121.355 48.6529C120.579 48.2967 119.823 47.8044 119.108 47.1864C118.393 46.5684 117.758 45.8142 117.194 44.9133C116.64 44.0125 116.197 42.9441 115.874 41.6976C115.552 40.451 115.391 39.016 115.391 37.4029V32.6263C115.391 30.1543 115.723 28.1326 116.388 26.5509C117.053 24.9692 117.929 23.7122 119.007 22.7904C120.085 21.8686 121.294 21.2192 122.644 20.863C123.994 20.5069 125.334 20.3184 126.664 20.3184C128.517 20.3184 130.099 20.4231 131.409 20.6431C132.718 20.863 133.716 21.0516 134.411 21.1982C134.834 21.2716 135.045 21.4706 135.045 21.7744V25.8596C135.076 26.0795 135.025 26.2157 134.924 26.2786Z" fill="black"/>
<path d="M156.208 49.1654C155.564 49.2702 154.707 49.3749 153.629 49.4902C152.551 49.6054 151.01 49.6682 149.015 49.6682C147.827 49.6682 146.688 49.5635 145.6 49.3645C144.512 49.1654 143.545 48.7569 142.709 48.1703C141.873 47.5837 141.208 46.7353 140.714 45.6459C140.221 44.5565 139.969 43.1319 139.969 41.3826V28.5718C139.969 26.8225 140.221 25.4084 140.714 24.3295C141.208 23.2506 141.873 22.4126 142.709 21.826C143.545 21.2394 144.512 20.8414 145.62 20.6319C146.729 20.4224 147.867 20.3281 149.056 20.3281C150.043 20.3281 150.919 20.3491 151.665 20.391C152.42 20.4329 153.075 20.4748 153.649 20.5271C154.214 20.5795 154.707 20.6319 155.11 20.6843C155.513 20.7366 155.886 20.789 156.208 20.8414C156.702 20.9147 156.954 21.1766 156.954 21.6165V25.1989C156.954 25.4084 156.883 25.5865 156.732 25.7436C156.581 25.9008 156.41 25.9741 156.208 25.9741H148.683C147.817 25.9741 147.202 26.1626 146.849 26.5292C146.487 26.9063 146.315 27.5872 146.315 28.5928V32.1019H155.916C156.118 32.1019 156.289 32.1752 156.44 32.3323C156.591 32.4894 156.662 32.6675 156.662 32.877V36.5432C156.662 36.7527 156.591 36.9308 156.44 37.0774C156.289 37.2346 156.118 37.3079 155.916 37.3079H146.315V41.3931C146.315 42.3987 146.497 43.0795 146.849 43.4566C147.212 43.8337 147.817 44.0118 148.683 44.0118H156.208C156.41 44.0118 156.581 44.0851 156.732 44.2422C156.883 44.3994 156.954 44.5774 156.954 44.7765V48.3589C156.954 48.8198 156.702 49.0816 156.208 49.1654Z" fill="black"/>
<path d="M179.597 25.8903C179.436 26.037 179.254 26.0998 179.063 26.0998H173.059V48.537C173.059 48.7465 172.988 48.9245 172.837 49.0817C172.686 49.2388 172.515 49.3121 172.313 49.3121H167.457C167.256 49.3121 167.085 49.2388 166.933 49.0817C166.782 48.9245 166.712 48.7465 166.712 48.537V26.1103H160.667C160.466 26.1103 160.295 26.037 160.144 25.9008C159.992 25.7646 159.922 25.5865 159.922 25.377V21.4071C159.922 21.1976 159.992 21.03 160.144 20.8833C160.295 20.7471 160.466 20.6738 160.667 20.6738H179.063C179.264 20.6738 179.436 20.7471 179.597 20.8833C179.758 21.03 179.838 21.1976 179.838 21.4071V25.377C179.838 25.5761 179.758 25.7541 179.597 25.8903Z" fill="black"/>
<path d="M214.317 48.8516C214.317 49.1554 214.136 49.3125 213.763 49.3125H208.061C207.859 49.3125 207.708 49.2392 207.608 49.0821C207.507 48.925 207.406 48.7469 207.305 48.5374L202.359 38.7853L201.956 38.8272C201.563 38.8272 201.11 38.8167 200.606 38.7853C200.102 38.7643 199.679 38.7434 199.337 38.7434V48.5374C199.337 48.7469 199.266 48.925 199.115 49.0821C198.964 49.2392 198.793 49.3125 198.591 49.3125H193.745C193.544 49.3125 193.373 49.2392 193.222 49.0821C193.071 48.925 193 48.7469 193 48.5374V22.6645C193 21.9941 193.141 21.5437 193.413 21.3132C193.685 21.0828 194.108 20.9152 194.672 20.8104C195.095 20.7371 195.599 20.6742 196.194 20.6219C196.788 20.5695 197.423 20.5171 198.087 20.4647C198.752 20.4124 199.447 20.3705 200.153 20.3495C200.858 20.3286 201.543 20.3076 202.218 20.3076C203.8 20.3076 205.28 20.4543 206.64 20.7476C208 21.0409 209.189 21.5437 210.187 22.2559C211.194 22.9682 211.98 23.89 212.544 25.0527C213.108 26.2154 213.4 27.64 213.4 29.337V29.8397C213.4 31.8928 212.937 33.5583 212.02 34.8153C211.103 36.0723 209.955 36.9836 208.585 37.5492L214.216 48.4222C214.277 48.5793 214.317 48.7259 214.317 48.8516ZM207.043 29.3474C207.043 28.1638 206.62 27.2944 205.784 26.7497C204.948 26.1945 203.759 25.9221 202.208 25.9221C202.087 25.9221 201.885 25.9326 201.603 25.9431C201.321 25.9536 201.029 25.964 200.737 25.985C200.445 25.9955 200.163 26.0059 199.891 26.0269C199.619 26.0374 199.437 26.0478 199.337 26.0478V33.4536C199.437 33.4536 199.609 33.464 199.85 33.4745C200.092 33.485 200.364 33.4955 200.646 33.5164C200.928 33.5269 201.19 33.5374 201.442 33.5374C201.684 33.5374 201.865 33.5374 201.956 33.5374C202.913 33.5374 203.719 33.464 204.374 33.3279C205.029 33.1917 205.552 32.9717 205.945 32.6889C206.338 32.4061 206.62 32.029 206.792 31.5681C206.963 31.1072 207.053 30.5416 207.053 29.8712V29.3474H207.043Z" fill="black"/>
<path d="M233.49 49.1654C232.845 49.2702 231.988 49.3749 230.911 49.4902C229.833 49.6054 228.301 49.6682 226.297 49.6682C225.108 49.6682 223.969 49.5635 222.881 49.3645C221.793 49.1654 220.826 48.7569 219.99 48.1703C219.154 47.5837 218.489 46.7353 217.995 45.6459C217.502 44.5565 217.25 43.1319 217.25 41.3826V28.5718C217.25 26.8225 217.502 25.4084 217.995 24.3295C218.489 23.2506 219.154 22.4126 219.99 21.826C220.826 21.2394 221.793 20.8414 222.902 20.6319C224.01 20.4224 225.148 20.3281 226.337 20.3281C227.324 20.3281 228.201 20.3491 228.946 20.391C229.702 20.4329 230.356 20.4748 230.931 20.5271C231.495 20.5795 231.988 20.6319 232.391 20.6843C232.794 20.7366 233.167 20.789 233.49 20.8414C233.983 20.9147 234.235 21.1766 234.235 21.6165V25.1989C234.235 25.4084 234.165 25.5865 234.013 25.7436C233.862 25.9008 233.691 25.9741 233.5 25.9741H225.974C225.108 25.9741 224.493 26.1626 224.141 26.5292C223.778 26.9063 223.607 27.5872 223.607 28.5928V32.1019H233.207C233.409 32.1019 233.58 32.1752 233.731 32.3323C233.882 32.4894 233.953 32.6675 233.953 32.877V36.5432C233.953 36.7527 233.882 36.9308 233.731 37.0774C233.58 37.2346 233.409 37.3079 233.207 37.3079H223.607V41.3931C223.607 42.3987 223.788 43.0795 224.141 43.4566C224.503 43.8337 225.108 44.0118 225.974 44.0118H233.5C233.701 44.0118 233.872 44.0851 234.013 44.2422C234.165 44.3994 234.235 44.5774 234.235 44.7765V48.3589C234.225 48.8198 233.983 49.0816 233.49 49.1654Z" fill="black"/>
<path d="M256.51 41.215C256.51 42.2415 256.339 43.2576 255.986 44.2632C255.644 45.2688 255.07 46.1696 254.264 46.9657C253.458 47.7618 252.42 48.4112 251.131 48.914C249.841 49.4168 248.259 49.6682 246.386 49.6682C244.905 49.6682 243.595 49.5949 242.477 49.4378C241.359 49.2807 240.321 49.0816 239.384 48.8198C239.183 48.7674 239.011 48.6836 238.86 48.5474C238.709 48.4217 238.639 48.2541 238.639 48.0446V44.2632C238.639 43.9804 238.699 43.7918 238.82 43.6871C238.941 43.5823 239.102 43.53 239.303 43.53H239.414C239.787 43.5823 240.301 43.6347 240.956 43.6871C241.61 43.7394 242.285 43.7813 242.981 43.8232C243.676 43.8651 244.33 43.8966 244.965 43.9385C245.6 43.9804 246.093 44.0013 246.466 44.0013C247.756 44.0013 248.622 43.7813 249.075 43.3414C249.529 42.9015 249.76 42.2206 249.76 41.2988C249.76 40.7332 249.589 40.2513 249.257 39.8533C248.924 39.4552 248.269 38.9629 247.312 38.3658L242.195 35.2024C241.328 34.6682 240.623 34.113 240.059 33.5474C239.505 32.9818 239.062 32.3952 238.719 31.7772C238.387 31.1591 238.155 30.5202 238.014 29.8707C237.883 29.2108 237.812 28.5404 237.812 27.8491C237.812 26.7911 237.964 25.817 238.276 24.8952C238.588 23.9839 239.112 23.1878 239.847 22.5069C240.593 21.826 241.57 21.2918 242.779 20.9042C243.988 20.5167 245.499 20.3281 247.302 20.3281C247.967 20.3281 248.693 20.3491 249.468 20.4014C250.244 20.4538 250.989 20.5167 251.715 20.59C252.44 20.6633 253.095 20.7576 253.72 20.8623C254.334 20.9671 254.818 21.0718 255.17 21.1661C255.321 21.2185 255.452 21.2918 255.563 21.3966C255.674 21.5013 255.734 21.6584 255.734 21.8575V25.7541C255.734 25.9322 255.694 26.0893 255.603 26.215C255.513 26.3407 255.352 26.4035 255.1 26.4035H255.029C254.757 26.3826 254.314 26.3407 253.71 26.3093C253.105 26.2778 252.42 26.2255 251.654 26.1731C250.889 26.1207 250.103 26.0788 249.297 26.0369C248.491 25.995 247.786 25.9741 247.161 25.9741C246.093 25.9741 245.348 26.1417 244.915 26.4769C244.482 26.8121 244.27 27.3253 244.27 28.0167C244.27 28.2995 244.31 28.5404 244.381 28.7499C244.451 28.9594 244.582 29.1584 244.774 29.347C244.965 29.5355 245.217 29.745 245.529 29.965C245.852 30.185 246.255 30.4364 246.748 30.7192L251.493 33.3798C253.417 34.4587 254.737 35.6424 255.442 36.9308C256.158 38.2297 256.51 39.6543 256.51 41.215Z" fill="black"/>
<path d="M276.794 49.1654C276.149 49.2702 275.293 49.3749 274.215 49.4902C273.137 49.6054 271.606 49.6682 269.601 49.6682C268.413 49.6682 267.274 49.5635 266.186 49.3645C265.098 49.1654 264.131 48.7569 263.295 48.1703C262.459 47.5837 261.794 46.7353 261.3 45.6459C260.807 44.5565 260.555 43.1319 260.555 41.3826V28.5718C260.555 26.8225 260.807 25.4084 261.3 24.3295C261.794 23.2506 262.459 22.4126 263.295 21.826C264.131 21.2394 265.098 20.8414 266.206 20.6319C267.314 20.4224 268.453 20.3281 269.642 20.3281C270.629 20.3281 271.505 20.3491 272.251 20.391C273.006 20.4329 273.661 20.4748 274.235 20.5271C274.8 20.5795 275.293 20.6319 275.696 20.6843C276.099 20.7366 276.472 20.789 276.794 20.8414C277.288 20.9147 277.54 21.1766 277.54 21.6165V25.1989C277.54 25.4084 277.469 25.5865 277.318 25.7436C277.167 25.9008 276.996 25.9741 276.804 25.9741H269.279C268.413 25.9741 267.798 26.1626 267.445 26.5292C267.083 26.9063 266.911 27.5872 266.911 28.5928V32.1019H276.512C276.714 32.1019 276.885 32.1752 277.036 32.3323C277.187 32.4894 277.258 32.6675 277.258 32.877V36.5432C277.258 36.7527 277.187 36.9308 277.036 37.0774C276.885 37.2346 276.714 37.3079 276.512 37.3079H266.911V41.3931C266.911 42.3987 267.093 43.0795 267.445 43.4566C267.808 43.8337 268.413 44.0118 269.279 44.0118H276.804C277.006 44.0118 277.177 44.0851 277.318 44.2422C277.469 44.3994 277.54 44.5774 277.54 44.7765V48.3589C277.53 48.8198 277.288 49.0816 276.794 49.1654Z" fill="black"/>
<path d="M303.585 48.8931C303.303 49.1759 302.96 49.3226 302.567 49.3226H298.931C298.538 49.3226 298.185 49.2493 297.893 49.1131C297.601 48.9769 297.299 48.6417 297.007 48.1285L288.554 32.9399C288.433 32.7304 288.323 32.6361 288.222 32.6361C288.101 32.6361 288.041 32.7409 288.041 32.9399V48.5579C288.041 48.7674 287.97 48.9455 287.819 49.1026C287.668 49.2597 287.497 49.3331 287.305 49.3331H282.933C282.731 49.3331 282.56 49.2597 282.409 49.1026C282.258 48.9455 282.188 48.7674 282.188 48.5579V22.1298C282.188 21.7213 282.318 21.3756 282.601 21.0928C282.873 20.81 283.205 20.6738 283.598 20.6738H287.345C287.718 20.6738 288.01 20.7681 288.232 20.9671C288.454 21.1661 288.675 21.4594 288.897 21.868L297.682 37.7583C297.802 37.9678 297.903 38.0621 297.974 38.0621C298.095 38.0621 298.155 37.9469 298.155 37.7164V21.4071C298.155 21.1976 298.226 21.03 298.377 20.8833C298.528 20.7471 298.699 20.6738 298.901 20.6738H303.273C303.474 20.6738 303.645 20.7471 303.797 20.8833C303.948 21.03 304.018 21.1976 304.018 21.4071V47.8561C304.008 48.2646 303.867 48.6103 303.585 48.8931Z" fill="black"/>
<path d="M329.998 37.4762C329.998 39.5083 329.726 41.289 329.182 42.8184C328.638 44.3477 327.863 45.6152 326.845 46.6312C325.828 47.6473 324.599 48.4015 323.138 48.9043C321.677 49.4071 320.025 49.6585 318.171 49.6585C317.406 49.6585 316.63 49.6375 315.854 49.6061C315.079 49.5642 314.333 49.5223 313.628 49.4699C312.923 49.4175 312.278 49.3652 311.704 49.2918C311.119 49.229 310.646 49.1557 310.273 49.0823C309.931 49.03 309.659 48.9043 309.477 48.6948C309.296 48.4853 309.195 48.171 309.195 47.7311V22.2562C309.195 21.8163 309.286 21.502 309.477 21.2925C309.669 21.083 309.931 20.9573 310.273 20.9049C310.646 20.8316 311.119 20.7583 311.704 20.6955C312.288 20.6326 312.923 20.5698 313.628 20.5174C314.333 20.465 315.079 20.4231 315.854 20.3812C316.63 20.3393 317.406 20.3184 318.171 20.3184C320.025 20.3184 321.677 20.5698 323.138 21.0725C324.599 21.5753 325.828 22.3295 326.845 23.3456C327.863 24.3617 328.638 25.6291 329.182 27.1584C329.726 28.6878 329.998 30.4685 329.998 32.5006V37.4762ZM323.662 32.5111C323.662 31.2017 323.531 30.1228 323.269 29.2744C323.007 28.4259 322.634 27.7555 322.161 27.2527C321.687 26.7499 321.103 26.4043 320.438 26.2157C319.773 26.0272 319.018 25.9224 318.171 25.9224C317.698 25.9224 317.214 25.9329 316.711 25.9434C316.207 25.9538 315.814 25.9748 315.542 26.0062V44.0125C315.814 44.0335 316.207 44.0544 316.711 44.0649C317.214 44.0754 317.708 44.0858 318.171 44.0858C319.008 44.0858 319.763 43.9916 320.438 43.7925C321.103 43.604 321.677 43.2583 322.161 42.7555C322.644 42.2527 323.017 41.5823 323.269 40.7339C323.521 39.8854 323.662 38.8065 323.662 37.4971V32.5111Z" fill="black"/>
<path d="M41.7482 2.13301C40.9725 2.52058 22.3353 12.2203 21.0559 32.4158C20.2701 44.7657 26.4355 53.7217 28.3596 56.309C28.4906 59.9752 28.6216 63.6414 28.7525 67.3076L33.3161 61.3579C34.6358 62.5835 36.157 63.8614 37.8596 65.1288C40.0557 66.7629 42.1612 68.0723 44.0854 69.1302C39.9953 69.7168 33.0139 70.1254 25.0654 67.4124C20.8947 65.9878 17.5501 64.0814 15.0718 62.3635C10.1959 64.9089 5.33012 67.4543 0.454225 69.9997C2.18698 64.668 3.91973 59.3258 5.65249 53.9941C4.19174 51.9305 2.33809 48.7671 1.14934 44.5562C-0.976304 36.9829 0.403855 30.677 0.897488 28.582C4.16151 14.5038 16.0389 7.52756 18.5877 6.11346C28.541 0.582728 38.1215 1.55689 41.7482 2.13301Z" fill="#1D53DD"/>
<path d="M27.087 49.6473C26.5732 46.5468 26.0494 40.4714 28.7392 33.9141C32.7386 24.162 41.0599 20.1815 43.7799 18.8827C45.704 17.9609 51.1945 15.5831 58.5284 15.8554C69.7813 16.2744 77.488 22.6431 80.0368 24.9581C78.5559 26.8645 77.085 28.7814 75.6041 30.6878C81.8098 31.1278 88.0256 31.5573 94.2313 31.9972C94.2615 23.9944 94.2917 15.9916 94.332 7.9888C92.9216 9.45528 91.5213 10.9218 90.1109 12.3882C88.8214 11.0684 87.0282 9.39244 84.7212 7.68503C79.926 4.14453 75.6646 2.51045 74.6269 2.13335C65.1069 -1.27098 56.7353 0.279303 53.8339 0.85542C45.5932 2.4895 40.0625 6.21855 38.8234 7.06702C35.6903 9.23531 29.1321 13.8966 25.6263 22.8526C24.639 25.3771 23.3495 29.588 23.3999 34.9092C23.4603 41.8645 25.7471 47.0705 27.087 49.6473Z" fill="#1D53DD"/>
<path d="M97.0491 19.4795C98.3385 22.4648 100.162 27.6918 100.192 34.3748C100.202 37.2658 100.102 47.3426 93.1403 56.372C88.1637 62.8245 82.1897 65.4851 79.0365 66.8468C66.3128 72.3252 54.7578 69.057 51.7456 68.1038C42.7796 65.2651 36.9466 59.8706 34.0856 56.8014C32.9875 58.3517 31.8894 59.8915 30.7913 61.4418C30.5294 53.5019 30.2776 45.5724 30.0156 37.6324C36.2213 38.2714 42.4371 38.9104 48.6427 39.5493C47.3532 40.9634 46.0738 42.3775 44.7843 43.8021C46.6783 46.337 49.5595 49.3852 53.7 51.6373C63.9353 57.2204 75.9236 54.6122 84.0534 49.6366C86.4007 48.2016 89.977 45.5514 92.8784 41.0577C98.7919 31.9236 97.4722 22.0458 97.0491 19.4795Z" fill="#7296F2"/>
<path d="M56.2955 38.8373C57.7142 38.8373 58.8644 37.6414 58.8644 36.1662C58.8644 34.691 57.7142 33.4951 56.2955 33.4951C54.8767 33.4951 53.7266 34.691 53.7266 36.1662C53.7266 37.6414 54.8767 38.8373 56.2955 38.8373Z" fill="#103EB3"/>
<path d="M63.6705 38.8373C65.0892 38.8373 66.2394 37.6414 66.2394 36.1662C66.2394 34.691 65.0892 33.4951 63.6705 33.4951C62.2517 33.4951 61.1016 34.691 61.1016 36.1662C61.1016 37.6414 62.2517 38.8373 63.6705 38.8373Z" fill="#103EB3"/>
<path d="M71.4283 38.8373C72.8471 38.8373 73.9972 37.6414 73.9972 36.1662C73.9972 34.691 72.8471 33.4951 71.4283 33.4951C70.0095 33.4951 68.8594 34.691 68.8594 36.1662C68.8594 37.6414 70.0095 38.8373 71.4283 38.8373Z" fill="#103EB3"/>
</svg>
